<svg xmlns="http://www.w3.org/2000/svg" width="888" height="158" viewBox="0 0 888 158" font-family="-apple-system,BlinkMacSystemFont,Segoe UI,Helvetica,Arial,sans-serif">
<style>
  text.lbl { fill:#7d8590; font-size:12px; font-weight:600; }
  text.total { fill:#e6edf3; font-size:14px; font-weight:700; }
  .c { transform-box:fill-box; transform-origin:center; opacity:0; animation:pop 0.7s ease-out both; }
  .g { animation:pop 0.7s ease-out both, flash 0.8999999999999999s ease-out both; }
  
  @keyframes pop { 0%{opacity:0;transform:scale(.3)} 60%{opacity:1;transform:scale(1.05)} 100%{opacity:1;transform:scale(1)} }
  @keyframes flash { 0%{filter:brightness(2.2)} 50%{filter:brightness(2.2)} 100%{filter:brightness(1)} }
</style>
<rect width="888" height="158" fill="none"/>
<text class="lbl" x="34" y="16">Jul</text><text class="lbl" x="66" y="16">Aug</text><text class="lbl" x="146" y="16">Sep</text><text class="lbl" x="210" y="16">Oct</text><text class="lbl" x="274" y="16">Nov</text><text class="lbl" x="354" y="16">Dec</text><text class="lbl" x="418" y="16">Jan</text><text class="lbl" x="482" y="16">Feb</text><text class="lbl" x="546" y="16">Mar</text><text class="lbl" x="626" y="16">Apr</text><text class="lbl" x="690" y="16">May</text><text class="lbl" x="770" y="16">Jun</text><text class="lbl" x="834" y="16">Jul</text><text class="lbl" x="2" y="51">Mon</text><text class="lbl" x="2" y="83">Wed</text><text class="lbl" x="2" y="115">Fri</text>
<rect class="c e" x="34" y="24" width="13" height="13" rx="2.5" fill="#161b22" style="animation-delay:1.0s"/><rect class="c e" x="34" y="40" width="13" height="13" rx="2.5" fill="#161b22" style="animation-delay:1.04s"/><rect class="c e" x="34" y="56" width="13" height="13" rx="2.5" fill="#161b22" style="animation-delay:1.08s"/><rect class="c e" x="34" y="72" width="13" height="13" rx="2.5" fill="#161b22" style="animation-delay:1.119s"/><rect class="c e" x="34" y="88" width="13" height="13" rx="2.5" fill="#161b22" style="animation-delay:1.159s"/><rect class="c e" x="34" y="104" width="13" height="13" rx="2.5" fill="#161b22" style="animation-delay:1.199s"/><rect class="c e" x="34" y="120" width="13" height="13" rx="2.5" fill="#161b22" style="animation-delay:1.239s"/><rect class="c e" x="50" y="24" width="13" height="13" rx="2.5" fill="#161b22" style="animation-delay:1.072s"/><rect class="c e" x="50" y="40" width="13" height="13" rx="2.5" fill="#161b22" style="animation-delay:1.112s"/><rect class="c e" x="50" y="56" width="13" height="13" rx="2.5" fill="#161b22" style="animation-delay:1.152s"/><rect class="c e" x="50" y="72" width="13" height="13" rx="2.5" fill="#161b22" style="animation-delay:1.192s"/><rect class="c e" x="50" y="88" width="13" height="13" rx="2.5" fill="#161b22" style="animation-delay:1.231s"/><rect class="c e" x="50" y="104" width="13" height="13" rx="2.5" fill="#161b22" style="animation-delay:1.271s"/><rect class="c g" x="50" y="120" width="13" height="13" rx="2.5" fill="#006d32" style="animation-delay:1.311s"/><rect class="c g" x="66" y="24" width="13" height="13" rx="2.5" fill="#006d32" style="animation-delay:1.145s"/><rect class="c g" x="66" y="40" width="13" height="13" rx="2.5" fill="#0e4429" style="animation-delay:1.184s"/><rect class="c g" x="66" y="56" width="13" height="13" rx="2.5" fill="#39d353" style="animation-delay:1.224s"/><rect class="c g" x="66" y="72" width="13" height="13" rx="2.5" fill="#26a641" style="animation-delay:1.264s"/><rect class="c g" x="66" y="88" width="13" height="13" rx="2.5" fill="#39d353" style="animation-delay:1.304s"/><rect class="c g" x="66" y="104" width="13" height="13" rx="2.5" fill="#39d353" style="animation-delay:1.344s"/><rect class="c g" x="66" y="120" width="13" height="13" rx="2.5" fill="#39d353" style="animation-delay:1.383s"/><rect class="c e" x="82" y="24" width="13" height="13" rx="2.5" fill="#161b22" style="animation-delay:1.217s"/><rect class="c e" x="82" y="40" width="13" height="13" rx="2.5" fill="#161b22" style="animation-delay:1.257s"/><rect class="c e" x="82" y="56" width="13" height="13" rx="2.5" fill="#161b22" style="animation-delay:1.297s"/><rect class="c g" x="82" y="72" width="13" height="13" rx="2.5" fill="#39d353" style="animation-delay:1.336s"/><rect class="c g" x="82" y="88" width="13" height="13" rx="2.5" fill="#0e4429" style="animation-delay:1.376s"/><rect class="c e" x="82" y="104" width="13" height="13" rx="2.5" fill="#161b22" style="animation-delay:1.416s"/><rect class="c e" x="82" y="120" width="13" height="13" rx="2.5" fill="#161b22" style="animation-delay:1.456s"/><rect class="c e" x="98" y="24" width="13" height="13" rx="2.5" fill="#161b22" style="animation-delay:1.289s"/><rect class="c e" x="98" y="40" width="13" height="13" rx="2.5" fill="#161b22" style="animation-delay:1.329s"/><rect class="c e" x="98" y="56" width="13" height="13" rx="2.5" fill="#161b22" style="animation-delay:1.369s"/><rect class="c e" x="98" y="72" width="13" height="13" rx="2.5" fill="#161b22" style="animation-delay:1.409s"/><rect class="c e" x="98" y="88" width="13" height="13" rx="2.5" fill="#161b22" style="animation-delay:1.448s"/><rect class="c g" x="98" y="104" width="13" height="13" rx="2.5" fill="#39d353" style="animation-delay:1.488s"/><rect class="c e" x="98" y="120" width="13" height="13" rx="2.5" fill="#161b22" style="animation-delay:1.528s"/><rect class="c e" x="114" y="24" width="13" height="13" rx="2.5" fill="#161b22" style="animation-delay:1.362s"/><rect class="c e" x="114" y="40" width="13" height="13" rx="2.5" fill="#161b22" style="animation-delay:1.401s"/><rect class="c e" x="114" y="56" width="13" height="13" rx="2.5" fill="#161b22" style="animation-delay:1.441s"/><rect class="c e" x="114" y="72" width="13" height="13" rx="2.5" fill="#161b22" style="animation-delay:1.481s"/><rect class="c e" x="114" y="88" width="13" height="13" rx="2.5" fill="#161b22" style="animation-delay:1.521s"/><rect class="c e" x="114" y="104" width="13" height="13" rx="2.5" fill="#161b22" style="animation-delay:1.561s"/><rect class="c e" x="114" y="120" width="13" height="13" rx="2.5" fill="#161b22" style="animation-delay:1.6s"/><rect class="c g" x="130" y="24" width="13" height="13" rx="2.5" fill="#0e4429" style="animation-delay:1.434s"/><rect class="c g" x="130" y="40" width="13" height="13" rx="2.5" fill="#0e4429" style="animation-delay:1.474s"/><rect class="c e" x="130" y="56" width="13" height="13" rx="2.5" fill="#161b22" style="animation-delay:1.514s"/><rect class="c e" x="130" y="72" width="13" height="13" rx="2.5" fill="#161b22" style="animation-delay:1.553s"/><rect class="c g" x="130" y="88" width="13" height="13" rx="2.5" fill="#0e4429" style="animation-delay:1.593s"/><rect class="c g" x="130" y="104" width="13" height="13" rx="2.5" fill="#0e4429" style="animation-delay:1.633s"/><rect class="c e" x="130" y="120" width="13" height="13" rx="2.5" fill="#161b22" style="animation-delay:1.673s"/><rect class="c e" x="146" y="24" width="13" height="13" rx="2.5" fill="#161b22" style="animation-delay:1.506s"/><rect class="c e" x="146" y="40" width="13" height="13" rx="2.5" fill="#161b22" style="animation-delay:1.546s"/><rect class="c e" x="146" y="56" width="13" height="13" rx="2.5" fill="#161b22" style="animation-delay:1.586s"/><rect class="c e" x="146" y="72" width="13" height="13" rx="2.5" fill="#161b22" style="animation-delay:1.626s"/><rect class="c e" x="146" y="88" width="13" height="13" rx="2.5" fill="#161b22" style="animation-delay:1.665s"/><rect class="c g" x="146" y="104" width="13" height="13" rx="2.5" fill="#0e4429" style="animation-delay:1.705s"/><rect class="c g" x="146" y="120" width="13" height="13" rx="2.5" fill="#0e4429" style="animation-delay:1.745s"/><rect class="c e" x="162" y="24" width="13" height="13" rx="2.5" fill="#161b22" style="animation-delay:1.579s"/><rect class="c e" x="162" y="40" width="13" height="13" rx="2.5" fill="#161b22" style="animation-delay:1.618s"/><rect class="c e" x="162" y="56" width="13" height="13" rx="2.5" fill="#161b22" style="animation-delay:1.658s"/><rect class="c e" x="162" y="72" width="13" height="13" rx="2.5" fill="#161b22" style="animation-delay:1.698s"/><rect class="c e" x="162" y="88" width="13" height="13" rx="2.5" fill="#161b22" style="animation-delay:1.738s"/><rect class="c e" x="162" y="104" width="13" height="13" rx="2.5" fill="#161b22" style="animation-delay:1.778s"/><rect class="c e" x="162" y="120" width="13" height="13" rx="2.5" fill="#161b22" style="animation-delay:1.817s"/><rect class="c g" x="178" y="24" width="13" height="13" rx="2.5" fill="#0e4429" style="animation-delay:1.651s"/><rect class="c e" x="178" y="40" width="13" height="13" rx="2.5" fill="#161b22" style="animation-delay:1.691s"/><rect class="c e" x="178" y="56" width="13" height="13" rx="2.5" fill="#161b22" style="animation-delay:1.731s"/><rect class="c e" x="178" y="72" width="13" height="13" rx="2.5" fill="#161b22" style="animation-delay:1.77s"/><rect class="c e" x="178" y="88" width="13" height="13" rx="2.5" fill="#161b22" style="animation-delay:1.81s"/><rect class="c e" x="178" y="104" width="13" height="13" rx="2.5" fill="#161b22" style="animation-delay:1.85s"/><rect class="c e" x="178" y="120" width="13" height="13" rx="2.5" fill="#161b22" style="animation-delay:1.89s"/><rect class="c e" x="194" y="24" width="13" height="13" rx="2.5" fill="#161b22" style="animation-delay:1.723s"/><rect class="c e" x="194" y="40" width="13" height="13" rx="2.5" fill="#161b22" style="animation-delay:1.763s"/><rect class="c e" x="194" y="56" width="13" height="13" rx="2.5" fill="#161b22" style="animation-delay:1.803s"/><rect class="c e" x="194" y="72" width="13" height="13" rx="2.5" fill="#161b22" style="animation-delay:1.843s"/><rect class="c e" x="194" y="88" width="13" height="13" rx="2.5" fill="#161b22" style="animation-delay:1.882s"/><rect class="c e" x="194" y="104" width="13" height="13" rx="2.5" fill="#161b22" style="animation-delay:1.922s"/><rect class="c e" x="194" y="120" width="13" height="13" rx="2.5" fill="#161b22" style="animation-delay:1.962s"/><rect class="c e" x="210" y="24" width="13" height="13" rx="2.5" fill="#161b22" style="animation-delay:1.796s"/><rect class="c e" x="210" y="40" width="13" height="13" rx="2.5" fill="#161b22" style="animation-delay:1.835s"/><rect class="c e" x="210" y="56" width="13" height="13" rx="2.5" fill="#161b22" style="animation-delay:1.875s"/><rect class="c e" x="210" y="72" width="13" height="13" rx="2.5" fill="#161b22" style="animation-delay:1.915s"/><rect class="c e" x="210" y="88" width="13" height="13" rx="2.5" fill="#161b22" style="animation-delay:1.955s"/><rect class="c e" x="210" y="104" width="13" height="13" rx="2.5" fill="#161b22" style="animation-delay:1.995s"/><rect class="c e" x="210" y="120" width="13" height="13" rx="2.5" fill="#161b22" style="animation-delay:2.034s"/><rect class="c e" x="226" y="24" width="13" height="13" rx="2.5" fill="#161b22" style="animation-delay:1.868s"/><rect class="c e" x="226" y="40" width="13" height="13" rx="2.5" fill="#161b22" style="animation-delay:1.908s"/><rect class="c e" x="226" y="56" width="13" height="13" rx="2.5" fill="#161b22" style="animation-delay:1.948s"/><rect class="c e" x="226" y="72" width="13" height="13" rx="2.5" fill="#161b22" style="animation-delay:1.987s"/><rect class="c e" x="226" y="88" width="13" height="13" rx="2.5" fill="#161b22" style="animation-delay:2.027s"/><rect class="c e" x="226" y="104" width="13" height="13" rx="2.5" fill="#161b22" style="animation-delay:2.067s"/><rect class="c e" x="226" y="120" width="13" height="13" rx="2.5" fill="#161b22" style="animation-delay:2.107s"/><rect class="c e" x="242" y="24" width="13" height="13" rx="2.5" fill="#161b22" style="animation-delay:1.94s"/><rect class="c e" x="242" y="40" width="13" height="13" rx="2.5" fill="#161b22" style="animation-delay:1.98s"/><rect class="c e" x="242" y="56" width="13" height="13" rx="2.5" fill="#161b22" style="animation-delay:2.02s"/><rect class="c e" x="242" y="72" width="13" height="13" rx="2.5" fill="#161b22" style="animation-delay:2.06s"/><rect class="c e" x="242" y="88" width="13" height="13" rx="2.5" fill="#161b22" style="animation-delay:2.099s"/><rect class="c e" x="242" y="104" width="13" height="13" rx="2.5" fill="#161b22" style="animation-delay:2.139s"/><rect class="c e" x="242" y="120" width="13" height="13" rx="2.5" fill="#161b22" style="animation-delay:2.179s"/><rect class="c e" x="258" y="24" width="13" height="13" rx="2.5" fill="#161b22" style="animation-delay:2.013s"/><rect class="c e" x="258" y="40" width="13" height="13" rx="2.5" fill="#161b22" style="animation-delay:2.052s"/><rect class="c g" x="258" y="56" width="13" height="13" rx="2.5" fill="#39d353" style="animation-delay:2.092s"/><rect class="c e" x="258" y="72" width="13" height="13" rx="2.5" fill="#161b22" style="animation-delay:2.132s"/><rect class="c e" x="258" y="88" width="13" height="13" rx="2.5" fill="#161b22" style="animation-delay:2.172s"/><rect class="c g" x="258" y="104" width="13" height="13" rx="2.5" fill="#39d353" style="animation-delay:2.212s"/><rect class="c g" x="258" y="120" width="13" height="13" rx="2.5" fill="#0e4429" style="animation-delay:2.251s"/><rect class="c e" x="274" y="24" width="13" height="13" rx="2.5" fill="#161b22" style="animation-delay:2.085s"/><rect class="c e" x="274" y="40" width="13" height="13" rx="2.5" fill="#161b22" style="animation-delay:2.125s"/><rect class="c e" x="274" y="56" width="13" height="13" rx="2.5" fill="#161b22" style="animation-delay:2.165s"/><rect class="c e" x="274" y="72" width="13" height="13" rx="2.5" fill="#161b22" style="animation-delay:2.204s"/><rect class="c g" x="274" y="88" width="13" height="13" rx="2.5" fill="#0e4429" style="animation-delay:2.244s"/><rect class="c g" x="274" y="104" width="13" height="13" rx="2.5" fill="#0e4429" style="animation-delay:2.284s"/><rect class="c e" x="274" y="120" width="13" height="13" rx="2.5" fill="#161b22" style="animation-delay:2.324s"/><rect class="c e" x="290" y="24" width="13" height="13" rx="2.5" fill="#161b22" style="animation-delay:2.157s"/><rect class="c e" x="290" y="40" width="13" height="13" rx="2.5" fill="#161b22" style="animation-delay:2.197s"/><rect class="c e" x="290" y="56" width="13" height="13" rx="2.5" fill="#161b22" style="animation-delay:2.237s"/><rect class="c g" x="290" y="72" width="13" height="13" rx="2.5" fill="#006d32" style="animation-delay:2.277s"/><rect class="c e" x="290" y="88" width="13" height="13" rx="2.5" fill="#161b22" style="animation-delay:2.316s"/><rect class="c e" x="290" y="104" width="13" height="13" rx="2.5" fill="#161b22" style="animation-delay:2.356s"/><rect class="c e" x="290" y="120" width="13" height="13" rx="2.5" fill="#161b22" style="animation-delay:2.396s"/><rect class="c e" x="306" y="24" width="13" height="13" rx="2.5" fill="#161b22" style="animation-delay:2.23s"/><rect class="c e" x="306" y="40" width="13" height="13" rx="2.5" fill="#161b22" style="animation-delay:2.269s"/><rect class="c e" x="306" y="56" width="13" height="13" rx="2.5" fill="#161b22" style="animation-delay:2.309s"/><rect class="c e" x="306" y="72" width="13" height="13" rx="2.5" fill="#161b22" style="animation-delay:2.349s"/><rect class="c e" x="306" y="88" width="13" height="13" rx="2.5" fill="#161b22" style="animation-delay:2.389s"/><rect class="c e" x="306" y="104" width="13" height="13" rx="2.5" fill="#161b22" style="animation-delay:2.429s"/><rect class="c e" x="306" y="120" width="13" height="13" rx="2.5" fill="#161b22" style="animation-delay:2.468s"/><rect class="c e" x="322" y="24" width="13" height="13" rx="2.5" fill="#161b22" style="animation-delay:2.302s"/><rect class="c e" x="322" y="40" width="13" height="13" rx="2.5" fill="#161b22" style="animation-delay:2.342s"/><rect class="c e" x="322" y="56" width="13" height="13" rx="2.5" fill="#161b22" style="animation-delay:2.382s"/><rect class="c e" x="322" y="72" width="13" height="13" rx="2.5" fill="#161b22" style="animation-delay:2.421s"/><rect class="c e" x="322" y="88" width="13" height="13" rx="2.5" fill="#161b22" style="animation-delay:2.461s"/><rect class="c e" x="322" y="104" width="13" height="13" rx="2.5" fill="#161b22" style="animation-delay:2.501s"/><rect class="c e" x="322" y="120" width="13" height="13" rx="2.5" fill="#161b22" style="animation-delay:2.541s"/><rect class="c e" x="338" y="24" width="13" height="13" rx="2.5" fill="#161b22" style="animation-delay:2.374s"/><rect class="c e" x="338" y="40" width="13" height="13" rx="2.5" fill="#161b22" style="animation-delay:2.414s"/><rect class="c e" x="338" y="56" width="13" height="13" rx="2.5" fill="#161b22" style="animation-delay:2.454s"/><rect class="c e" x="338" y="72" width="13" height="13" rx="2.5" fill="#161b22" style="animation-delay:2.494s"/><rect class="c e" x="338" y="88" width="13" height="13" rx="2.5" fill="#161b22" style="animation-delay:2.533s"/><rect class="c e" x="338" y="104" width="13" height="13" rx="2.5" fill="#161b22" style="animation-delay:2.573s"/><rect class="c e" x="338" y="120" width="13" height="13" rx="2.5" fill="#161b22" style="animation-delay:2.613s"/><rect class="c e" x="354" y="24" width="13" height="13" rx="2.5" fill="#161b22" style="animation-delay:2.447s"/><rect class="c e" x="354" y="40" width="13" height="13" rx="2.5" fill="#161b22" style="animation-delay:2.486s"/><rect class="c e" x="354" y="56" width="13" height="13" rx="2.5" fill="#161b22" style="animation-delay:2.526s"/><rect class="c e" x="354" y="72" width="13" height="13" rx="2.5" fill="#161b22" style="animation-delay:2.566s"/><rect class="c e" x="354" y="88" width="13" height="13" rx="2.5" fill="#161b22" style="animation-delay:2.606s"/><rect class="c e" x="354" y="104" width="13" height="13" rx="2.5" fill="#161b22" style="animation-delay:2.646s"/><rect class="c e" x="354" y="120" width="13" height="13" rx="2.5" fill="#161b22" style="animation-delay:2.685s"/><rect class="c e" x="370" y="24" width="13" height="13" rx="2.5" fill="#161b22" style="animation-delay:2.519s"/><rect class="c e" x="370" y="40" width="13" height="13" rx="2.5" fill="#161b22" style="animation-delay:2.559s"/><rect class="c e" x="370" y="56" width="13" height="13" rx="2.5" fill="#161b22" style="animation-delay:2.599s"/><rect class="c e" x="370" y="72" width="13" height="13" rx="2.5" fill="#161b22" style="animation-delay:2.638s"/><rect class="c e" x="370" y="88" width="13" height="13" rx="2.5" fill="#161b22" style="animation-delay:2.678s"/><rect class="c e" x="370" y="104" width="13" height="13" rx="2.5" fill="#161b22" style="animation-delay:2.718s"/><rect class="c e" x="370" y="120" width="13" height="13" rx="2.5" fill="#161b22" style="animation-delay:2.758s"/><rect class="c e" x="386" y="24" width="13" height="13" rx="2.5" fill="#161b22" style="animation-delay:2.591s"/><rect class="c e" x="386" y="40" width="13" height="13" rx="2.5" fill="#161b22" style="animation-delay:2.631s"/><rect class="c e" x="386" y="56" width="13" height="13" rx="2.5" fill="#161b22" style="animation-delay:2.671s"/><rect class="c e" x="386" y="72" width="13" height="13" rx="2.5" fill="#161b22" style="animation-delay:2.711s"/><rect class="c e" x="386" y="88" width="13" height="13" rx="2.5" fill="#161b22" style="animation-delay:2.75s"/><rect class="c e" x="386" y="104" width="13" height="13" rx="2.5" fill="#161b22" style="animation-delay:2.79s"/><rect class="c e" x="386" y="120" width="13" height="13" rx="2.5" fill="#161b22" style="animation-delay:2.83s"/><rect class="c e" x="402" y="24" width="13" height="13" rx="2.5" fill="#161b22" style="animation-delay:2.664s"/><rect class="c e" x="402" y="40" width="13" height="13" rx="2.5" fill="#161b22" style="animation-delay:2.703s"/><rect class="c e" x="402" y="56" width="13" height="13" rx="2.5" fill="#161b22" style="animation-delay:2.743s"/><rect class="c e" x="402" y="72" width="13" height="13" rx="2.5" fill="#161b22" style="animation-delay:2.783s"/><rect class="c e" x="402" y="88" width="13" height="13" rx="2.5" fill="#161b22" style="animation-delay:2.823s"/><rect class="c e" x="402" y="104" width="13" height="13" rx="2.5" fill="#161b22" style="animation-delay:2.863s"/><rect class="c e" x="402" y="120" width="13" height="13" rx="2.5" fill="#161b22" style="animation-delay:2.902s"/><rect class="c e" x="418" y="24" width="13" height="13" rx="2.5" fill="#161b22" style="animation-delay:2.736s"/><rect class="c e" x="418" y="40" width="13" height="13" rx="2.5" fill="#161b22" style="animation-delay:2.776s"/><rect class="c e" x="418" y="56" width="13" height="13" rx="2.5" fill="#161b22" style="animation-delay:2.816s"/><rect class="c e" x="418" y="72" width="13" height="13" rx="2.5" fill="#161b22" style="animation-delay:2.855s"/><rect class="c e" x="418" y="88" width="13" height="13" rx="2.5" fill="#161b22" style="animation-delay:2.895s"/><rect class="c e" x="418" y="104" width="13" height="13" rx="2.5" fill="#161b22" style="animation-delay:2.935s"/><rect class="c e" x="418" y="120" width="13" height="13" rx="2.5" fill="#161b22" style="animation-delay:2.975s"/><rect class="c e" x="434" y="24" width="13" height="13" rx="2.5" fill="#161b22" style="animation-delay:2.808s"/><rect class="c e" x="434" y="40" width="13" height="13" rx="2.5" fill="#161b22" style="animation-delay:2.848s"/><rect class="c e" x="434" y="56" width="13" height="13" rx="2.5" fill="#161b22" style="animation-delay:2.888s"/><rect class="c e" x="434" y="72" width="13" height="13" rx="2.5" fill="#161b22" style="animation-delay:2.928s"/><rect class="c e" x="434" y="88" width="13" height="13" rx="2.5" fill="#161b22" style="animation-delay:2.967s"/><rect class="c e" x="434" y="104" width="13" height="13" rx="2.5" fill="#161b22" style="animation-delay:3.007s"/><rect class="c e" x="434" y="120" width="13" height="13" rx="2.5" fill="#161b22" style="animation-delay:3.047s"/><rect class="c e" x="450" y="24" width="13" height="13" rx="2.5" fill="#161b22" style="animation-delay:2.881s"/><rect class="c e" x="450" y="40" width="13" height="13" rx="2.5" fill="#161b22" style="animation-delay:2.92s"/><rect class="c e" x="450" y="56" width="13" height="13" rx="2.5" fill="#161b22" style="animation-delay:2.96s"/><rect class="c e" x="450" y="72" width="13" height="13" rx="2.5" fill="#161b22" style="animation-delay:3.0s"/><rect class="c e" x="450" y="88" width="13" height="13" rx="2.5" fill="#161b22" style="animation-delay:3.04s"/><rect class="c e" x="450" y="104" width="13" height="13" rx="2.5" fill="#161b22" style="animation-delay:3.08s"/><rect class="c e" x="450" y="120" width="13" height="13" rx="2.5" fill="#161b22" style="animation-delay:3.119s"/><rect class="c e" x="466" y="24" width="13" height="13" rx="2.5" fill="#161b22" style="animation-delay:2.953s"/><rect class="c e" x="466" y="40" width="13" height="13" rx="2.5" fill="#161b22" style="animation-delay:2.993s"/><rect class="c e" x="466" y="56" width="13" height="13" rx="2.5" fill="#161b22" style="animation-delay:3.033s"/><rect class="c e" x="466" y="72" width="13" height="13" rx="2.5" fill="#161b22" style="animation-delay:3.072s"/><rect class="c e" x="466" y="88" width="13" height="13" rx="2.5" fill="#161b22" style="animation-delay:3.112s"/><rect class="c e" x="466" y="104" width="13" height="13" rx="2.5" fill="#161b22" style="animation-delay:3.152s"/><rect class="c e" x="466" y="120" width="13" height="13" rx="2.5" fill="#161b22" style="animation-delay:3.192s"/><rect class="c e" x="482" y="24" width="13" height="13" rx="2.5" fill="#161b22" style="animation-delay:3.025s"/><rect class="c e" x="482" y="40" width="13" height="13" rx="2.5" fill="#161b22" style="animation-delay:3.065s"/><rect class="c e" x="482" y="56" width="13" height="13" rx="2.5" fill="#161b22" style="animation-delay:3.105s"/><rect class="c e" x="482" y="72" width="13" height="13" rx="2.5" fill="#161b22" style="animation-delay:3.145s"/><rect class="c e" x="482" y="88" width="13" height="13" rx="2.5" fill="#161b22" style="animation-delay:3.184s"/><rect class="c e" x="482" y="104" width="13" height="13" rx="2.5" fill="#161b22" style="animation-delay:3.224s"/><rect class="c e" x="482" y="120" width="13" height="13" rx="2.5" fill="#161b22" style="animation-delay:3.264s"/><rect class="c e" x="498" y="24" width="13" height="13" rx="2.5" fill="#161b22" style="animation-delay:3.098s"/><rect class="c e" x="498" y="40" width="13" height="13" rx="2.5" fill="#161b22" style="animation-delay:3.137s"/><rect class="c e" x="498" y="56" width="13" height="13" rx="2.5" fill="#161b22" style="animation-delay:3.177s"/><rect class="c e" x="498" y="72" width="13" height="13" rx="2.5" fill="#161b22" style="animation-delay:3.217s"/><rect class="c e" x="498" y="88" width="13" height="13" rx="2.5" fill="#161b22" style="animation-delay:3.257s"/><rect class="c e" x="498" y="104" width="13" height="13" rx="2.5" fill="#161b22" style="animation-delay:3.297s"/><rect class="c e" x="498" y="120" width="13" height="13" rx="2.5" fill="#161b22" style="animation-delay:3.336s"/><rect class="c e" x="514" y="24" width="13" height="13" rx="2.5" fill="#161b22" style="animation-delay:3.17s"/><rect class="c e" x="514" y="40" width="13" height="13" rx="2.5" fill="#161b22" style="animation-delay:3.21s"/><rect class="c e" x="514" y="56" width="13" height="13" rx="2.5" fill="#161b22" style="animation-delay:3.25s"/><rect class="c e" x="514" y="72" width="13" height="13" rx="2.5" fill="#161b22" style="animation-delay:3.289s"/><rect class="c e" x="514" y="88" width="13" height="13" rx="2.5" fill="#161b22" style="animation-delay:3.329s"/><rect class="c e" x="514" y="104" width="13" height="13" rx="2.5" fill="#161b22" style="animation-delay:3.369s"/><rect class="c e" x="514" y="120" width="13" height="13" rx="2.5" fill="#161b22" style="animation-delay:3.409s"/><rect class="c e" x="530" y="24" width="13" height="13" rx="2.5" fill="#161b22" style="animation-delay:3.242s"/><rect class="c e" x="530" y="40" width="13" height="13" rx="2.5" fill="#161b22" style="animation-delay:3.282s"/><rect class="c e" x="530" y="56" width="13" height="13" rx="2.5" fill="#161b22" style="animation-delay:3.322s"/><rect class="c e" x="530" y="72" width="13" height="13" rx="2.5" fill="#161b22" style="animation-delay:3.362s"/><rect class="c e" x="530" y="88" width="13" height="13" rx="2.5" fill="#161b22" style="animation-delay:3.401s"/><rect class="c e" x="530" y="104" width="13" height="13" rx="2.5" fill="#161b22" style="animation-delay:3.441s"/><rect class="c e" x="530" y="120" width="13" height="13" rx="2.5" fill="#161b22" style="animation-delay:3.481s"/><rect class="c e" x="546" y="24" width="13" height="13" rx="2.5" fill="#161b22" style="animation-delay:3.315s"/><rect class="c e" x="546" y="40" width="13" height="13" rx="2.5" fill="#161b22" style="animation-delay:3.354s"/><rect class="c e" x="546" y="56" width="13" height="13" rx="2.5" fill="#161b22" style="animation-delay:3.394s"/><rect class="c e" x="546" y="72" width="13" height="13" rx="2.5" fill="#161b22" style="animation-delay:3.434s"/><rect class="c e" x="546" y="88" width="13" height="13" rx="2.5" fill="#161b22" style="animation-delay:3.474s"/><rect class="c e" x="546" y="104" width="13" height="13" rx="2.5" fill="#161b22" style="animation-delay:3.514s"/><rect class="c e" x="546" y="120" width="13" height="13" rx="2.5" fill="#161b22" style="animation-delay:3.553s"/><rect class="c e" x="562" y="24" width="13" height="13" rx="2.5" fill="#161b22" style="animation-delay:3.387s"/><rect class="c e" x="562" y="40" width="13" height="13" rx="2.5" fill="#161b22" style="animation-delay:3.427s"/><rect class="c e" x="562" y="56" width="13" height="13" rx="2.5" fill="#161b22" style="animation-delay:3.467s"/><rect class="c e" x="562" y="72" width="13" height="13" rx="2.5" fill="#161b22" style="animation-delay:3.506s"/><rect class="c e" x="562" y="88" width="13" height="13" rx="2.5" fill="#161b22" style="animation-delay:3.546s"/><rect class="c e" x="562" y="104" width="13" height="13" rx="2.5" fill="#161b22" style="animation-delay:3.586s"/><rect class="c e" x="562" y="120" width="13" height="13" rx="2.5" fill="#161b22" style="animation-delay:3.626s"/><rect class="c e" x="578" y="24" width="13" height="13" rx="2.5" fill="#161b22" style="animation-delay:3.459s"/><rect class="c e" x="578" y="40" width="13" height="13" rx="2.5" fill="#161b22" style="animation-delay:3.499s"/><rect class="c e" x="578" y="56" width="13" height="13" rx="2.5" fill="#161b22" style="animation-delay:3.539s"/><rect class="c e" x="578" y="72" width="13" height="13" rx="2.5" fill="#161b22" style="animation-delay:3.579s"/><rect class="c e" x="578" y="88" width="13" height="13" rx="2.5" fill="#161b22" style="animation-delay:3.618s"/><rect class="c e" x="578" y="104" width="13" height="13" rx="2.5" fill="#161b22" style="animation-delay:3.658s"/><rect class="c e" x="578" y="120" width="13" height="13" rx="2.5" fill="#161b22" style="animation-delay:3.698s"/><rect class="c e" x="594" y="24" width="13" height="13" rx="2.5" fill="#161b22" style="animation-delay:3.532s"/><rect class="c e" x="594" y="40" width="13" height="13" rx="2.5" fill="#161b22" style="animation-delay:3.571s"/><rect class="c e" x="594" y="56" width="13" height="13" rx="2.5" fill="#161b22" style="animation-delay:3.611s"/><rect class="c e" x="594" y="72" width="13" height="13" rx="2.5" fill="#161b22" style="animation-delay:3.651s"/><rect class="c e" x="594" y="88" width="13" height="13" rx="2.5" fill="#161b22" style="animation-delay:3.691s"/><rect class="c e" x="594" y="104" width="13" height="13" rx="2.5" fill="#161b22" style="animation-delay:3.731s"/><rect class="c e" x="594" y="120" width="13" height="13" rx="2.5" fill="#161b22" style="animation-delay:3.77s"/><rect class="c e" x="610" y="24" width="13" height="13" rx="2.5" fill="#161b22" style="animation-delay:3.604s"/><rect class="c e" x="610" y="40" width="13" height="13" rx="2.5" fill="#161b22" style="animation-delay:3.644s"/><rect class="c e" x="610" y="56" width="13" height="13" rx="2.5" fill="#161b22" style="animation-delay:3.684s"/><rect class="c e" x="610" y="72" width="13" height="13" rx="2.5" fill="#161b22" style="animation-delay:3.723s"/><rect class="c e" x="610" y="88" width="13" height="13" rx="2.5" fill="#161b22" style="animation-delay:3.763s"/><rect class="c e" x="610" y="104" width="13" height="13" rx="2.5" fill="#161b22" style="animation-delay:3.803s"/><rect class="c e" x="610" y="120" width="13" height="13" rx="2.5" fill="#161b22" style="animation-delay:3.843s"/><rect class="c e" x="626" y="24" width="13" height="13" rx="2.5" fill="#161b22" style="animation-delay:3.676s"/><rect class="c e" x="626" y="40" width="13" height="13" rx="2.5" fill="#161b22" style="animation-delay:3.716s"/><rect class="c e" x="626" y="56" width="13" height="13" rx="2.5" fill="#161b22" style="animation-delay:3.756s"/><rect class="c e" x="626" y="72" width="13" height="13" rx="2.5" fill="#161b22" style="animation-delay:3.796s"/><rect class="c e" x="626" y="88" width="13" height="13" rx="2.5" fill="#161b22" style="animation-delay:3.835s"/><rect class="c e" x="626" y="104" width="13" height="13" rx="2.5" fill="#161b22" style="animation-delay:3.875s"/><rect class="c e" x="626" y="120" width="13" height="13" rx="2.5" fill="#161b22" style="animation-delay:3.915s"/><rect class="c e" x="642" y="24" width="13" height="13" rx="2.5" fill="#161b22" style="animation-delay:3.749s"/><rect class="c e" x="642" y="40" width="13" height="13" rx="2.5" fill="#161b22" style="animation-delay:3.788s"/><rect class="c e" x="642" y="56" width="13" height="13" rx="2.5" fill="#161b22" style="animation-delay:3.828s"/><rect class="c e" x="642" y="72" width="13" height="13" rx="2.5" fill="#161b22" style="animation-delay:3.868s"/><rect class="c e" x="642" y="88" width="13" height="13" rx="2.5" fill="#161b22" style="animation-delay:3.908s"/><rect class="c e" x="642" y="104" width="13" height="13" rx="2.5" fill="#161b22" style="animation-delay:3.948s"/><rect class="c e" x="642" y="120" width="13" height="13" rx="2.5" fill="#161b22" style="animation-delay:3.987s"/><rect class="c e" x="658" y="24" width="13" height="13" rx="2.5" fill="#161b22" style="animation-delay:3.821s"/><rect class="c e" x="658" y="40" width="13" height="13" rx="2.5" fill="#161b22" style="animation-delay:3.861s"/><rect class="c g" x="658" y="56" width="13" height="13" rx="2.5" fill="#0e4429" style="animation-delay:3.901s"/><rect class="c e" x="658" y="72" width="13" height="13" rx="2.5" fill="#161b22" style="animation-delay:3.94s"/><rect class="c e" x="658" y="88" width="13" height="13" rx="2.5" fill="#161b22" style="animation-delay:3.98s"/><rect class="c e" x="658" y="104" width="13" height="13" rx="2.5" fill="#161b22" style="animation-delay:4.02s"/><rect class="c e" x="658" y="120" width="13" height="13" rx="2.5" fill="#161b22" style="animation-delay:4.06s"/><rect class="c e" x="674" y="24" width="13" height="13" rx="2.5" fill="#161b22" style="animation-delay:3.893s"/><rect class="c e" x="674" y="40" width="13" height="13" rx="2.5" fill="#161b22" style="animation-delay:3.933s"/><rect class="c e" x="674" y="56" width="13" height="13" rx="2.5" fill="#161b22" style="animation-delay:3.973s"/><rect class="c e" x="674" y="72" width="13" height="13" rx="2.5" fill="#161b22" style="animation-delay:4.013s"/><rect class="c e" x="674" y="88" width="13" height="13" rx="2.5" fill="#161b22" style="animation-delay:4.052s"/><rect class="c e" x="674" y="104" width="13" height="13" rx="2.5" fill="#161b22" style="animation-delay:4.092s"/><rect class="c e" x="674" y="120" width="13" height="13" rx="2.5" fill="#161b22" style="animation-delay:4.132s"/><rect class="c e" x="690" y="24" width="13" height="13" rx="2.5" fill="#161b22" style="animation-delay:3.966s"/><rect class="c e" x="690" y="40" width="13" height="13" rx="2.5" fill="#161b22" style="animation-delay:4.005s"/><rect class="c e" x="690" y="56" width="13" height="13" rx="2.5" fill="#161b22" style="animation-delay:4.045s"/><rect class="c e" x="690" y="72" width="13" height="13" rx="2.5" fill="#161b22" style="animation-delay:4.085s"/><rect class="c e" x="690" y="88" width="13" height="13" rx="2.5" fill="#161b22" style="animation-delay:4.125s"/><rect class="c e" x="690" y="104" width="13" height="13" rx="2.5" fill="#161b22" style="animation-delay:4.165s"/><rect class="c e" x="690" y="120" width="13" height="13" rx="2.5" fill="#161b22" style="animation-delay:4.204s"/><rect class="c e" x="706" y="24" width="13" height="13" rx="2.5" fill="#161b22" style="animation-delay:4.038s"/><rect class="c e" x="706" y="40" width="13" height="13" rx="2.5" fill="#161b22" style="animation-delay:4.078s"/><rect class="c e" x="706" y="56" width="13" height="13" rx="2.5" fill="#161b22" style="animation-delay:4.118s"/><rect class="c e" x="706" y="72" width="13" height="13" rx="2.5" fill="#161b22" style="animation-delay:4.157s"/><rect class="c e" x="706" y="88" width="13" height="13" rx="2.5" fill="#161b22" style="animation-delay:4.197s"/><rect class="c e" x="706" y="104" width="13" height="13" rx="2.5" fill="#161b22" style="animation-delay:4.237s"/><rect class="c e" x="706" y="120" width="13" height="13" rx="2.5" fill="#161b22" style="animation-delay:4.277s"/><rect class="c e" x="722" y="24" width="13" height="13" rx="2.5" fill="#161b22" style="animation-delay:4.11s"/><rect class="c e" x="722" y="40" width="13" height="13" rx="2.5" fill="#161b22" style="animation-delay:4.15s"/><rect class="c e" x="722" y="56" width="13" height="13" rx="2.5" fill="#161b22" style="animation-delay:4.19s"/><rect class="c e" x="722" y="72" width="13" height="13" rx="2.5" fill="#161b22" style="animation-delay:4.23s"/><rect class="c e" x="722" y="88" width="13" height="13" rx="2.5" fill="#161b22" style="animation-delay:4.269s"/><rect class="c e" x="722" y="104" width="13" height="13" rx="2.5" fill="#161b22" style="animation-delay:4.309s"/><rect class="c e" x="722" y="120" width="13" height="13" rx="2.5" fill="#161b22" style="animation-delay:4.349s"/><rect class="c e" x="738" y="24" width="13" height="13" rx="2.5" fill="#161b22" style="animation-delay:4.183s"/><rect class="c e" x="738" y="40" width="13" height="13" rx="2.5" fill="#161b22" style="animation-delay:4.222s"/><rect class="c e" x="738" y="56" width="13" height="13" rx="2.5" fill="#161b22" style="animation-delay:4.262s"/><rect class="c e" x="738" y="72" width="13" height="13" rx="2.5" fill="#161b22" style="animation-delay:4.302s"/><rect class="c e" x="738" y="88" width="13" height="13" rx="2.5" fill="#161b22" style="animation-delay:4.342s"/><rect class="c e" x="738" y="104" width="13" height="13" rx="2.5" fill="#161b22" style="animation-delay:4.382s"/><rect class="c e" x="738" y="120" width="13" height="13" rx="2.5" fill="#161b22" style="animation-delay:4.421s"/><rect class="c e" x="754" y="24" width="13" height="13" rx="2.5" fill="#161b22" style="animation-delay:4.255s"/><rect class="c e" x="754" y="40" width="13" height="13" rx="2.5" fill="#161b22" style="animation-delay:4.295s"/><rect class="c e" x="754" y="56" width="13" height="13" rx="2.5" fill="#161b22" style="animation-delay:4.335s"/><rect class="c e" x="754" y="72" width="13" height="13" rx="2.5" fill="#161b22" style="animation-delay:4.374s"/><rect class="c e" x="754" y="88" width="13" height="13" rx="2.5" fill="#161b22" style="animation-delay:4.414s"/><rect class="c e" x="754" y="104" width="13" height="13" rx="2.5" fill="#161b22" style="animation-delay:4.454s"/><rect class="c e" x="754" y="120" width="13" height="13" rx="2.5" fill="#161b22" style="animation-delay:4.494s"/><rect class="c e" x="770" y="24" width="13" height="13" rx="2.5" fill="#161b22" style="animation-delay:4.327s"/><rect class="c e" x="770" y="40" width="13" height="13" rx="2.5" fill="#161b22" style="animation-delay:4.367s"/><rect class="c e" x="770" y="56" width="13" height="13" rx="2.5" fill="#161b22" style="animation-delay:4.407s"/><rect class="c e" x="770" y="72" width="13" height="13" rx="2.5" fill="#161b22" style="animation-delay:4.447s"/><rect class="c e" x="770" y="88" width="13" height="13" rx="2.5" fill="#161b22" style="animation-delay:4.486s"/><rect class="c e" x="770" y="104" width="13" height="13" rx="2.5" fill="#161b22" style="animation-delay:4.526s"/><rect class="c e" x="770" y="120" width="13" height="13" rx="2.5" fill="#161b22" style="animation-delay:4.566s"/><rect class="c e" x="786" y="24" width="13" height="13" rx="2.5" fill="#161b22" style="animation-delay:4.4s"/><rect class="c e" x="786" y="40" width="13" height="13" rx="2.5" fill="#161b22" style="animation-delay:4.439s"/><rect class="c e" x="786" y="56" width="13" height="13" rx="2.5" fill="#161b22" style="animation-delay:4.479s"/><rect class="c e" x="786" y="72" width="13" height="13" rx="2.5" fill="#161b22" style="animation-delay:4.519s"/><rect class="c e" x="786" y="88" width="13" height="13" rx="2.5" fill="#161b22" style="animation-delay:4.559s"/><rect class="c e" x="786" y="104" width="13" height="13" rx="2.5" fill="#161b22" style="animation-delay:4.599s"/><rect class="c e" x="786" y="120" width="13" height="13" rx="2.5" fill="#161b22" style="animation-delay:4.638s"/><rect class="c e" x="802" y="24" width="13" height="13" rx="2.5" fill="#161b22" style="animation-delay:4.472s"/><rect class="c e" x="802" y="40" width="13" height="13" rx="2.5" fill="#161b22" style="animation-delay:4.512s"/><rect class="c e" x="802" y="56" width="13" height="13" rx="2.5" fill="#161b22" style="animation-delay:4.552s"/><rect class="c e" x="802" y="72" width="13" height="13" rx="2.5" fill="#161b22" style="animation-delay:4.591s"/><rect class="c e" x="802" y="88" width="13" height="13" rx="2.5" fill="#161b22" style="animation-delay:4.631s"/><rect class="c e" x="802" y="104" width="13" height="13" rx="2.5" fill="#161b22" style="animation-delay:4.671s"/><rect class="c e" x="802" y="120" width="13" height="13" rx="2.5" fill="#161b22" style="animation-delay:4.711s"/><rect class="c e" x="818" y="24" width="13" height="13" rx="2.5" fill="#161b22" style="animation-delay:4.544s"/><rect class="c g" x="818" y="40" width="13" height="13" rx="2.5" fill="#0e4429" style="animation-delay:4.584s"/><rect class="c e" x="818" y="56" width="13" height="13" rx="2.5" fill="#161b22" style="animation-delay:4.624s"/><rect class="c e" x="818" y="72" width="13" height="13" rx="2.5" fill="#161b22" style="animation-delay:4.664s"/><rect class="c e" x="818" y="88" width="13" height="13" rx="2.5" fill="#161b22" style="animation-delay:4.703s"/><rect class="c e" x="818" y="104" width="13" height="13" rx="2.5" fill="#161b22" style="animation-delay:4.743s"/><rect class="c e" x="818" y="120" width="13" height="13" rx="2.5" fill="#161b22" style="animation-delay:4.783s"/><rect class="c e" x="834" y="24" width="13" height="13" rx="2.5" fill="#161b22" style="animation-delay:4.617s"/><rect class="c g" x="834" y="40" width="13" height="13" rx="2.5" fill="#0e4429" style="animation-delay:4.656s"/><rect class="c e" x="834" y="56" width="13" height="13" rx="2.5" fill="#161b22" style="animation-delay:4.696s"/><rect class="c e" x="834" y="72" width="13" height="13" rx="2.5" fill="#161b22" style="animation-delay:4.736s"/><rect class="c e" x="834" y="88" width="13" height="13" rx="2.5" fill="#161b22" style="animation-delay:4.776s"/><rect class="c e" x="834" y="104" width="13" height="13" rx="2.5" fill="#161b22" style="animation-delay:4.816s"/><rect class="c e" x="834" y="120" width="13" height="13" rx="2.5" fill="#161b22" style="animation-delay:4.855s"/><rect class="c e" x="850" y="24" width="13" height="13" rx="2.5" fill="#161b22" style="animation-delay:4.689s"/><rect class="c g" x="850" y="40" width="13" height="13" rx="2.5" fill="#0e4429" style="animation-delay:4.729s"/><rect class="c e" x="850" y="56" width="13" height="13" rx="2.5" fill="#161b22" style="animation-delay:4.769s"/><rect class="c e" x="850" y="72" width="13" height="13" rx="2.5" fill="#161b22" style="animation-delay:4.808s"/><rect class="c e" x="850" y="88" width="13" height="13" rx="2.5" fill="#161b22" style="animation-delay:4.848s"/><rect class="c e" x="850" y="104" width="13" height="13" rx="2.5" fill="#161b22" style="animation-delay:4.888s"/><rect class="c e" x="850" y="120" width="13" height="13" rx="2.5" fill="#161b22" style="animation-delay:4.928s"/><rect class="c g" x="866" y="24" width="13" height="13" rx="2.5" fill="#006d32" style="animation-delay:4.761s"/><rect class="c g" x="866" y="40" width="13" height="13" rx="2.5" fill="#39d353" style="animation-delay:4.801s"/><rect class="c g" x="866" y="56" width="13" height="13" rx="2.5" fill="#0e4429" style="animation-delay:4.841s"/><rect class="c g" x="866" y="72" width="13" height="13" rx="2.5" fill="#0e4429" style="animation-delay:4.881s"/><rect class="c g" x="866" y="88" width="13" height="13" rx="2.5" fill="#0e4429" style="animation-delay:4.92s"/>
<text class="total" x="34" y="152">540 contributions in the last year</text>
</svg>