<svg xmlns="http://www.w3.org/2000/svg" width="888" height="158" viewBox="0 0 888 158" font-family="sans-serif" pointer-events="all">
<style>
  text.lbl { fill:#7d8590; font-size:12px; font-weight:600; pointer-events:none; }
  text.total { fill:#e6edf3; font-size:14px; font-weight:700; pointer-events:none; }
  .c { transform-box:fill-box; transform-origin:center; opacity:0; animation:pop 0.7s ease-out both; }
  .g { animation:pop 0.7s ease-out both, flash 0.8999999999999999s ease-out both; }
  
  /* Aggressive Hover Fix */
  svg:hover .c { 
    opacity: 1 !important; 
    animation: none !important; 
    transform: scale(1) !important; 
    filter: brightness(1) !important; 
  }

  @keyframes pop { 0%{opacity:0;transform:scale(.3)} 60%{opacity:1;transform:scale(1.05)} 100%{opacity:1;transform:scale(1)} }
  @keyframes flash { 0%{filter:brightness(2.2)} 50%{filter:brightness(2.2)} 100%{filter:brightness(1)} }
</style>
<rect width="888" height="158" fill="transparent"/>
<text class="lbl" x="34" y="16">Jul</text><text class="lbl" x="66" y="16">Aug</text><text class="lbl" x="146" y="16">Sep</text><text class="lbl" x="210" y="16">Oct</text><text class="lbl" x="274" y="16">Nov</text><text class="lbl" x="354" y="16">Dec</text><text class="lbl" x="418" y="16">Jan</text><text class="lbl" x="482" y="16">Feb</text><text class="lbl" x="546" y="16">Mar</text><text class="lbl" x="626" y="16">Apr</text><text class="lbl" x="690" y="16">May</text><text class="lbl" x="770" y="16">Jun</text><text class="lbl" x="834" y="16">Jul</text><text class="lbl" x="2" y="51">Mon</text><text class="lbl" x="2" y="83">Wed</text><text class="lbl" x="2" y="115">Fri</text>
<rect class="c e" x="34" y="24" width="13" height="13" rx="2.5" fill="#161b22" style="animation-delay:4.0s"/><rect class="c e" x="34" y="40" width="13" height="13" rx="2.5" fill="#161b22" style="animation-delay:4.04s"/><rect class="c e" x="34" y="56" width="13" height="13" rx="2.5" fill="#161b22" style="animation-delay:4.08s"/><rect class="c e" x="34" y="72" width="13" height="13" rx="2.5" fill="#161b22" style="animation-delay:4.119s"/><rect class="c e" x="34" y="88" width="13" height="13" rx="2.5" fill="#161b22" style="animation-delay:4.159s"/><rect class="c e" x="34" y="104" width="13" height="13" rx="2.5" fill="#161b22" style="animation-delay:4.199s"/><rect class="c e" x="34" y="120" width="13" height="13" rx="2.5" fill="#161b22" style="animation-delay:4.239s"/><rect class="c e" x="50" y="24" width="13" height="13" rx="2.5" fill="#161b22" style="animation-delay:4.072s"/><rect class="c e" x="50" y="40" width="13" height="13" rx="2.5" fill="#161b22" style="animation-delay:4.112s"/><rect class="c e" x="50" y="56" width="13" height="13" rx="2.5" fill="#161b22" style="animation-delay:4.152s"/><rect class="c e" x="50" y="72" width="13" height="13" rx="2.5" fill="#161b22" style="animation-delay:4.192s"/><rect class="c e" x="50" y="88" width="13" height="13" rx="2.5" fill="#161b22" style="animation-delay:4.231s"/><rect class="c e" x="50" y="104" width="13" height="13" rx="2.5" fill="#161b22" style="animation-delay:4.271s"/><rect class="c g" x="50" y="120" width="13" height="13" rx="2.5" fill="#006d32" style="animation-delay:4.311s"/><rect class="c g" x="66" y="24" width="13" height="13" rx="2.5" fill="#006d32" style="animation-delay:4.145s"/><rect class="c g" x="66" y="40" width="13" height="13" rx="2.5" fill="#0e4429" style="animation-delay:4.184s"/><rect class="c g" x="66" y="56" width="13" height="13" rx="2.5" fill="#39d353" style="animation-delay:4.224s"/><rect class="c g" x="66" y="72" width="13" height="13" rx="2.5" fill="#26a641" style="animation-delay:4.264s"/><rect class="c g" x="66" y="88" width="13" height="13" rx="2.5" fill="#39d353" style="animation-delay:4.304s"/><rect class="c g" x="66" y="104" width="13" height="13" rx="2.5" fill="#39d353" style="animation-delay:4.344s"/><rect class="c g" x="66" y="120" width="13" height="13" rx="2.5" fill="#39d353" style="animation-delay:4.383s"/><rect class="c e" x="82" y="24" width="13" height="13" rx="2.5" fill="#161b22" style="animation-delay:4.217s"/><rect class="c e" x="82" y="40" width="13" height="13" rx="2.5" fill="#161b22" style="animation-delay:4.257s"/><rect class="c e" x="82" y="56" width="13" height="13" rx="2.5" fill="#161b22" style="animation-delay:4.297s"/><rect class="c g" x="82" y="72" width="13" height="13" rx="2.5" fill="#39d353" style="animation-delay:4.336s"/><rect class="c g" x="82" y="88" width="13" height="13" rx="2.5" fill="#0e4429" style="animation-delay:4.376s"/><rect class="c e" x="82" y="104" width="13" height="13" rx="2.5" fill="#161b22" style="animation-delay:4.416s"/><rect class="c e" x="82" y="120" width="13" height="13" rx="2.5" fill="#161b22" style="animation-delay:4.456s"/><rect class="c e" x="98" y="24" width="13" height="13" rx="2.5" fill="#161b22" style="animation-delay:4.289s"/><rect class="c e" x="98" y="40" width="13" height="13" rx="2.5" fill="#161b22" style="animation-delay:4.329s"/><rect class="c e" x="98" y="56" width="13" height="13" rx="2.5" fill="#161b22" style="animation-delay:4.369s"/><rect class="c e" x="98" y="72" width="13" height="13" rx="2.5" fill="#161b22" style="animation-delay:4.409s"/><rect class="c e" x="98" y="88" width="13" height="13" rx="2.5" fill="#161b22" style="animation-delay:4.448s"/><rect class="c g" x="98" y="104" width="13" height="13" rx="2.5" fill="#39d353" style="animation-delay:4.488s"/><rect class="c e" x="98" y="120" width="13" height="13" rx="2.5" fill="#161b22" style="animation-delay:4.528s"/><rect class="c e" x="114" y="24" width="13" height="13" rx="2.5" fill="#161b22" style="animation-delay:4.362s"/><rect class="c e" x="114" y="40" width="13" height="13" rx="2.5" fill="#161b22" style="animation-delay:4.401s"/><rect class="c e" x="114" y="56" width="13" height="13" rx="2.5" fill="#161b22" style="animation-delay:4.441s"/><rect class="c e" x="114" y="72" width="13" height="13" rx="2.5" fill="#161b22" style="animation-delay:4.481s"/><rect class="c e" x="114" y="88" width="13" height="13" rx="2.5" fill="#161b22" style="animation-delay:4.521s"/><rect class="c e" x="114" y="104" width="13" height="13" rx="2.5" fill="#161b22" style="animation-delay:4.561s"/><rect class="c e" x="114" y="120" width="13" height="13" rx="2.5" fill="#161b22" style="animation-delay:4.6s"/><rect class="c g" x="130" y="24" width="13" height="13" rx="2.5" fill="#0e4429" style="animation-delay:4.434s"/><rect class="c g" x="130" y="40" width="13" height="13" rx="2.5" fill="#0e4429" style="animation-delay:4.474s"/><rect class="c e" x="130" y="56" width="13" height="13" rx="2.5" fill="#161b22" style="animation-delay:4.514s"/><rect class="c e" x="130" y="72" width="13" height="13" rx="2.5" fill="#161b22" style="animation-delay:4.553s"/><rect class="c g" x="130" y="88" width="13" height="13" rx="2.5" fill="#0e4429" style="animation-delay:4.593s"/><rect class="c g" x="130" y="104" width="13" height="13" rx="2.5" fill="#0e4429" style="animation-delay:4.633s"/><rect class="c e" x="130" y="120" width="13" height="13" rx="2.5" fill="#161b22" style="animation-delay:4.673s"/><rect class="c e" x="146" y="24" width="13" height="13" rx="2.5" fill="#161b22" style="animation-delay:4.506s"/><rect class="c e" x="146" y="40" width="13" height="13" rx="2.5" fill="#161b22" style="animation-delay:4.546s"/><rect class="c e" x="146" y="56" width="13" height="13" rx="2.5" fill="#161b22" style="animation-delay:4.586s"/><rect class="c e" x="146" y="72" width="13" height="13" rx="2.5" fill="#161b22" style="animation-delay:4.626s"/><rect class="c e" x="146" y="88" width="13" height="13" rx="2.5" fill="#161b22" style="animation-delay:4.665s"/><rect class="c g" x="146" y="104" width="13" height="13" rx="2.5" fill="#0e4429" style="animation-delay:4.705s"/><rect class="c g" x="146" y="120" width="13" height="13" rx="2.5" fill="#0e4429" style="animation-delay:4.745s"/><rect class="c e" x="162" y="24" width="13" height="13" rx="2.5" fill="#161b22" style="animation-delay:4.579s"/><rect class="c e" x="162" y="40" width="13" height="13" rx="2.5" fill="#161b22" style="animation-delay:4.618s"/><rect class="c e" x="162" y="56" width="13" height="13" rx="2.5" fill="#161b22" style="animation-delay:4.658s"/><rect class="c e" x="162" y="72" width="13" height="13" rx="2.5" fill="#161b22" style="animation-delay:4.698s"/><rect class="c e" x="162" y="88" width="13" height="13" rx="2.5" fill="#161b22" style="animation-delay:4.738s"/><rect class="c e" x="162" y="104" width="13" height="13" rx="2.5" fill="#161b22" style="animation-delay:4.778s"/><rect class="c e" x="162" y="120" width="13" height="13" rx="2.5" fill="#161b22" style="animation-delay:4.817s"/><rect class="c g" x="178" y="24" width="13" height="13" rx="2.5" fill="#0e4429" style="animation-delay:4.651s"/><rect class="c e" x="178" y="40" width="13" height="13" rx="2.5" fill="#161b22" style="animation-delay:4.691s"/><rect class="c e" x="178" y="56" width="13" height="13" rx="2.5" fill="#161b22" style="animation-delay:4.731s"/><rect class="c e" x="178" y="72" width="13" height="13" rx="2.5" fill="#161b22" style="animation-delay:4.77s"/><rect class="c e" x="178" y="88" width="13" height="13" rx="2.5" fill="#161b22" style="animation-delay:4.81s"/><rect class="c e" x="178" y="104" width="13" height="13" rx="2.5" fill="#161b22" style="animation-delay:4.85s"/><rect class="c e" x="178" y="120" width="13" height="13" rx="2.5" fill="#161b22" style="animation-delay:4.89s"/><rect class="c e" x="194" y="24" width="13" height="13" rx="2.5" fill="#161b22" style="animation-delay:4.723s"/><rect class="c e" x="194" y="40" width="13" height="13" rx="2.5" fill="#161b22" style="animation-delay:4.763s"/><rect class="c e" x="194" y="56" width="13" height="13" rx="2.5" fill="#161b22" style="animation-delay:4.803s"/><rect class="c e" x="194" y="72" width="13" height="13" rx="2.5" fill="#161b22" style="animation-delay:4.843s"/><rect class="c e" x="194" y="88" width="13" height="13" rx="2.5" fill="#161b22" style="animation-delay:4.882s"/><rect class="c e" x="194" y="104" width="13" height="13" rx="2.5" fill="#161b22" style="animation-delay:4.922s"/><rect class="c e" x="194" y="120" width="13" height="13" rx="2.5" fill="#161b22" style="animation-delay:4.962s"/><rect class="c e" x="210" y="24" width="13" height="13" rx="2.5" fill="#161b22" style="animation-delay:4.796s"/><rect class="c e" x="210" y="40" width="13" height="13" rx="2.5" fill="#161b22" style="animation-delay:4.835s"/><rect class="c e" x="210" y="56" width="13" height="13" rx="2.5" fill="#161b22" style="animation-delay:4.875s"/><rect class="c e" x="210" y="72" width="13" height="13" rx="2.5" fill="#161b22" style="animation-delay:4.915s"/><rect class="c e" x="210" y="88" width="13" height="13" rx="2.5" fill="#161b22" style="animation-delay:4.955s"/><rect class="c e" x="210" y="104" width="13" height="13" rx="2.5" fill="#161b22" style="animation-delay:4.995s"/><rect class="c e" x="210" y="120" width="13" height="13" rx="2.5" fill="#161b22" style="animation-delay:5.034s"/><rect class="c e" x="226" y="24" width="13" height="13" rx="2.5" fill="#161b22" style="animation-delay:4.868s"/><rect class="c e" x="226" y="40" width="13" height="13" rx="2.5" fill="#161b22" style="animation-delay:4.908s"/><rect class="c e" x="226" y="56" width="13" height="13" rx="2.5" fill="#161b22" style="animation-delay:4.948s"/><rect class="c e" x="226" y="72" width="13" height="13" rx="2.5" fill="#161b22" style="animation-delay:4.987s"/><rect class="c e" x="226" y="88" width="13" height="13" rx="2.5" fill="#161b22" style="animation-delay:5.027s"/><rect class="c e" x="226" y="104" width="13" height="13" rx="2.5" fill="#161b22" style="animation-delay:5.067s"/><rect class="c e" x="226" y="120" width="13" height="13" rx="2.5" fill="#161b22" style="animation-delay:5.107s"/><rect class="c e" x="242" y="24" width="13" height="13" rx="2.5" fill="#161b22" style="animation-delay:4.94s"/><rect class="c e" x="242" y="40" width="13" height="13" rx="2.5" fill="#161b22" style="animation-delay:4.98s"/><rect class="c e" x="242" y="56" width="13" height="13" rx="2.5" fill="#161b22" style="animation-delay:5.02s"/><rect class="c e" x="242" y="72" width="13" height="13" rx="2.5" fill="#161b22" style="animation-delay:5.06s"/><rect class="c e" x="242" y="88" width="13" height="13" rx="2.5" fill="#161b22" style="animation-delay:5.099s"/><rect class="c e" x="242" y="104" width="13" height="13" rx="2.5" fill="#161b22" style="animation-delay:5.139s"/><rect class="c e" x="242" y="120" width="13" height="13" rx="2.5" fill="#161b22" style="animation-delay:5.179s"/><rect class="c e" x="258" y="24" width="13" height="13" rx="2.5" fill="#161b22" style="animation-delay:5.013s"/><rect class="c e" x="258" y="40" width="13" height="13" rx="2.5" fill="#161b22" style="animation-delay:5.052s"/><rect class="c g" x="258" y="56" width="13" height="13" rx="2.5" fill="#39d353" style="animation-delay:5.092s"/><rect class="c e" x="258" y="72" width="13" height="13" rx="2.5" fill="#161b22" style="animation-delay:5.132s"/><rect class="c e" x="258" y="88" width="13" height="13" rx="2.5" fill="#161b22" style="animation-delay:5.172s"/><rect class="c g" x="258" y="104" width="13" height="13" rx="2.5" fill="#39d353" style="animation-delay:5.212s"/><rect class="c g" x="258" y="120" width="13" height="13" rx="2.5" fill="#0e4429" style="animation-delay:5.251s"/><rect class="c e" x="274" y="24" width="13" height="13" rx="2.5" fill="#161b22" style="animation-delay:5.085s"/><rect class="c e" x="274" y="40" width="13" height="13" rx="2.5" fill="#161b22" style="animation-delay:5.125s"/><rect class="c e" x="274" y="56" width="13" height="13" rx="2.5" fill="#161b22" style="animation-delay:5.165s"/><rect class="c e" x="274" y="72" width="13" height="13" rx="2.5" fill="#161b22" style="animation-delay:5.204s"/><rect class="c g" x="274" y="88" width="13" height="13" rx="2.5" fill="#0e4429" style="animation-delay:5.244s"/><rect class="c g" x="274" y="104" width="13" height="13" rx="2.5" fill="#0e4429" style="animation-delay:5.284s"/><rect class="c e" x="274" y="120" width="13" height="13" rx="2.5" fill="#161b22" style="animation-delay:5.324s"/><rect class="c e" x="290" y="24" width="13" height="13" rx="2.5" fill="#161b22" style="animation-delay:5.157s"/><rect class="c e" x="290" y="40" width="13" height="13" rx="2.5" fill="#161b22" style="animation-delay:5.197s"/><rect class="c e" x="290" y="56" width="13" height="13" rx="2.5" fill="#161b22" style="animation-delay:5.237s"/><rect class="c g" x="290" y="72" width="13" height="13" rx="2.5" fill="#006d32" style="animation-delay:5.277s"/><rect class="c e" x="290" y="88" width="13" height="13" rx="2.5" fill="#161b22" style="animation-delay:5.316s"/><rect class="c e" x="290" y="104" width="13" height="13" rx="2.5" fill="#161b22" style="animation-delay:5.356s"/><rect class="c e" x="290" y="120" width="13" height="13" rx="2.5" fill="#161b22" style="animation-delay:5.396s"/><rect class="c e" x="306" y="24" width="13" height="13" rx="2.5" fill="#161b22" style="animation-delay:5.23s"/><rect class="c e" x="306" y="40" width="13" height="13" rx="2.5" fill="#161b22" style="animation-delay:5.269s"/><rect class="c e" x="306" y="56" width="13" height="13" rx="2.5" fill="#161b22" style="animation-delay:5.309s"/><rect class="c e" x="306" y="72" width="13" height="13" rx="2.5" fill="#161b22" style="animation-delay:5.349s"/><rect class="c e" x="306" y="88" width="13" height="13" rx="2.5" fill="#161b22" style="animation-delay:5.389s"/><rect class="c e" x="306" y="104" width="13" height="13" rx="2.5" fill="#161b22" style="animation-delay:5.429s"/><rect class="c e" x="306" y="120" width="13" height="13" rx="2.5" fill="#161b22" style="animation-delay:5.468s"/><rect class="c e" x="322" y="24" width="13" height="13" rx="2.5" fill="#161b22" style="animation-delay:5.302s"/><rect class="c e" x="322" y="40" width="13" height="13" rx="2.5" fill="#161b22" style="animation-delay:5.342s"/><rect class="c e" x="322" y="56" width="13" height="13" rx="2.5" fill="#161b22" style="animation-delay:5.382s"/><rect class="c e" x="322" y="72" width="13" height="13" rx="2.5" fill="#161b22" style="animation-delay:5.421s"/><rect class="c e" x="322" y="88" width="13" height="13" rx="2.5" fill="#161b22" style="animation-delay:5.461s"/><rect class="c e" x="322" y="104" width="13" height="13" rx="2.5" fill="#161b22" style="animation-delay:5.501s"/><rect class="c e" x="322" y="120" width="13" height="13" rx="2.5" fill="#161b22" style="animation-delay:5.541s"/><rect class="c e" x="338" y="24" width="13" height="13" rx="2.5" fill="#161b22" style="animation-delay:5.374s"/><rect class="c e" x="338" y="40" width="13" height="13" rx="2.5" fill="#161b22" style="animation-delay:5.414s"/><rect class="c e" x="338" y="56" width="13" height="13" rx="2.5" fill="#161b22" style="animation-delay:5.454s"/><rect class="c e" x="338" y="72" width="13" height="13" rx="2.5" fill="#161b22" style="animation-delay:5.494s"/><rect class="c e" x="338" y="88" width="13" height="13" rx="2.5" fill="#161b22" style="animation-delay:5.533s"/><rect class="c e" x="338" y="104" width="13" height="13" rx="2.5" fill="#161b22" style="animation-delay:5.573s"/><rect class="c e" x="338" y="120" width="13" height="13" rx="2.5" fill="#161b22" style="animation-delay:5.613s"/><rect class="c e" x="354" y="24" width="13" height="13" rx="2.5" fill="#161b22" style="animation-delay:5.447s"/><rect class="c e" x="354" y="40" width="13" height="13" rx="2.5" fill="#161b22" style="animation-delay:5.486s"/><rect class="c e" x="354" y="56" width="13" height="13" rx="2.5" fill="#161b22" style="animation-delay:5.526s"/><rect class="c e" x="354" y="72" width="13" height="13" rx="2.5" fill="#161b22" style="animation-delay:5.566s"/><rect class="c e" x="354" y="88" width="13" height="13" rx="2.5" fill="#161b22" style="animation-delay:5.606s"/><rect class="c e" x="354" y="104" width="13" height="13" rx="2.5" fill="#161b22" style="animation-delay:5.646s"/><rect class="c e" x="354" y="120" width="13" height="13" rx="2.5" fill="#161b22" style="animation-delay:5.685s"/><rect class="c e" x="370" y="24" width="13" height="13" rx="2.5" fill="#161b22" style="animation-delay:5.519s"/><rect class="c e" x="370" y="40" width="13" height="13" rx="2.5" fill="#161b22" style="animation-delay:5.559s"/><rect class="c e" x="370" y="56" width="13" height="13" rx="2.5" fill="#161b22" style="animation-delay:5.599s"/><rect class="c e" x="370" y="72" width="13" height="13" rx="2.5" fill="#161b22" style="animation-delay:5.638s"/><rect class="c e" x="370" y="88" width="13" height="13" rx="2.5" fill="#161b22" style="animation-delay:5.678s"/><rect class="c e" x="370" y="104" width="13" height="13" rx="2.5" fill="#161b22" style="animation-delay:5.718s"/><rect class="c e" x="370" y="120" width="13" height="13" rx="2.5" fill="#161b22" style="animation-delay:5.758s"/><rect class="c e" x="386" y="24" width="13" height="13" rx="2.5" fill="#161b22" style="animation-delay:5.591s"/><rect class="c e" x="386" y="40" width="13" height="13" rx="2.5" fill="#161b22" style="animation-delay:5.631s"/><rect class="c e" x="386" y="56" width="13" height="13" rx="2.5" fill="#161b22" style="animation-delay:5.671s"/><rect class="c e" x="386" y="72" width="13" height="13" rx="2.5" fill="#161b22" style="animation-delay:5.711s"/><rect class="c e" x="386" y="88" width="13" height="13" rx="2.5" fill="#161b22" style="animation-delay:5.75s"/><rect class="c e" x="386" y="104" width="13" height="13" rx="2.5" fill="#161b22" style="animation-delay:5.79s"/><rect class="c e" x="386" y="120" width="13" height="13" rx="2.5" fill="#161b22" style="animation-delay:5.83s"/><rect class="c e" x="402" y="24" width="13" height="13" rx="2.5" fill="#161b22" style="animation-delay:5.664s"/><rect class="c e" x="402" y="40" width="13" height="13" rx="2.5" fill="#161b22" style="animation-delay:5.703s"/><rect class="c e" x="402" y="56" width="13" height="13" rx="2.5" fill="#161b22" style="animation-delay:5.743s"/><rect class="c e" x="402" y="72" width="13" height="13" rx="2.5" fill="#161b22" style="animation-delay:5.783s"/><rect class="c e" x="402" y="88" width="13" height="13" rx="2.5" fill="#161b22" style="animation-delay:5.823s"/><rect class="c e" x="402" y="104" width="13" height="13" rx="2.5" fill="#161b22" style="animation-delay:5.863s"/><rect class="c e" x="402" y="120" width="13" height="13" rx="2.5" fill="#161b22" style="animation-delay:5.902s"/><rect class="c e" x="418" y="24" width="13" height="13" rx="2.5" fill="#161b22" style="animation-delay:5.736s"/><rect class="c e" x="418" y="40" width="13" height="13" rx="2.5" fill="#161b22" style="animation-delay:5.776s"/><rect class="c e" x="418" y="56" width="13" height="13" rx="2.5" fill="#161b22" style="animation-delay:5.816s"/><rect class="c e" x="418" y="72" width="13" height="13" rx="2.5" fill="#161b22" style="animation-delay:5.855s"/><rect class="c e" x="418" y="88" width="13" height="13" rx="2.5" fill="#161b22" style="animation-delay:5.895s"/><rect class="c e" x="418" y="104" width="13" height="13" rx="2.5" fill="#161b22" style="animation-delay:5.935s"/><rect class="c e" x="418" y="120" width="13" height="13" rx="2.5" fill="#161b22" style="animation-delay:5.975s"/><rect class="c e" x="434" y="24" width="13" height="13" rx="2.5" fill="#161b22" style="animation-delay:5.808s"/><rect class="c e" x="434" y="40" width="13" height="13" rx="2.5" fill="#161b22" style="animation-delay:5.848s"/><rect class="c e" x="434" y="56" width="13" height="13" rx="2.5" fill="#161b22" style="animation-delay:5.888s"/><rect class="c e" x="434" y="72" width="13" height="13" rx="2.5" fill="#161b22" style="animation-delay:5.928s"/><rect class="c e" x="434" y="88" width="13" height="13" rx="2.5" fill="#161b22" style="animation-delay:5.967s"/><rect class="c e" x="434" y="104" width="13" height="13" rx="2.5" fill="#161b22" style="animation-delay:6.007s"/><rect class="c e" x="434" y="120" width="13" height="13" rx="2.5" fill="#161b22" style="animation-delay:6.047s"/><rect class="c e" x="450" y="24" width="13" height="13" rx="2.5" fill="#161b22" style="animation-delay:5.881s"/><rect class="c e" x="450" y="40" width="13" height="13" rx="2.5" fill="#161b22" style="animation-delay:5.92s"/><rect class="c e" x="450" y="56" width="13" height="13" rx="2.5" fill="#161b22" style="animation-delay:5.96s"/><rect class="c e" x="450" y="72" width="13" height="13" rx="2.5" fill="#161b22" style="animation-delay:6.0s"/><rect class="c e" x="450" y="88" width="13" height="13" rx="2.5" fill="#161b22" style="animation-delay:6.04s"/><rect class="c e" x="450" y="104" width="13" height="13" rx="2.5" fill="#161b22" style="animation-delay:6.08s"/><rect class="c e" x="450" y="120" width="13" height="13" rx="2.5" fill="#161b22" style="animation-delay:6.119s"/><rect class="c e" x="466" y="24" width="13" height="13" rx="2.5" fill="#161b22" style="animation-delay:5.953s"/><rect class="c e" x="466" y="40" width="13" height="13" rx="2.5" fill="#161b22" style="animation-delay:5.993s"/><rect class="c e" x="466" y="56" width="13" height="13" rx="2.5" fill="#161b22" style="animation-delay:6.033s"/><rect class="c e" x="466" y="72" width="13" height="13" rx="2.5" fill="#161b22" style="animation-delay:6.072s"/><rect class="c e" x="466" y="88" width="13" height="13" rx="2.5" fill="#161b22" style="animation-delay:6.112s"/><rect class="c e" x="466" y="104" width="13" height="13" rx="2.5" fill="#161b22" style="animation-delay:6.152s"/><rect class="c e" x="466" y="120" width="13" height="13" rx="2.5" fill="#161b22" style="animation-delay:6.192s"/><rect class="c e" x="482" y="24" width="13" height="13" rx="2.5" fill="#161b22" style="animation-delay:6.025s"/><rect class="c e" x="482" y="40" width="13" height="13" rx="2.5" fill="#161b22" style="animation-delay:6.065s"/><rect class="c e" x="482" y="56" width="13" height="13" rx="2.5" fill="#161b22" style="animation-delay:6.105s"/><rect class="c e" x="482" y="72" width="13" height="13" rx="2.5" fill="#161b22" style="animation-delay:6.145s"/><rect class="c e" x="482" y="88" width="13" height="13" rx="2.5" fill="#161b22" style="animation-delay:6.184s"/><rect class="c e" x="482" y="104" width="13" height="13" rx="2.5" fill="#161b22" style="animation-delay:6.224s"/><rect class="c e" x="482" y="120" width="13" height="13" rx="2.5" fill="#161b22" style="animation-delay:6.264s"/><rect class="c e" x="498" y="24" width="13" height="13" rx="2.5" fill="#161b22" style="animation-delay:6.098s"/><rect class="c e" x="498" y="40" width="13" height="13" rx="2.5" fill="#161b22" style="animation-delay:6.137s"/><rect class="c e" x="498" y="56" width="13" height="13" rx="2.5" fill="#161b22" style="animation-delay:6.177s"/><rect class="c e" x="498" y="72" width="13" height="13" rx="2.5" fill="#161b22" style="animation-delay:6.217s"/><rect class="c e" x="498" y="88" width="13" height="13" rx="2.5" fill="#161b22" style="animation-delay:6.257s"/><rect class="c e" x="498" y="104" width="13" height="13" rx="2.5" fill="#161b22" style="animation-delay:6.297s"/><rect class="c e" x="498" y="120" width="13" height="13" rx="2.5" fill="#161b22" style="animation-delay:6.336s"/><rect class="c e" x="514" y="24" width="13" height="13" rx="2.5" fill="#161b22" style="animation-delay:6.17s"/><rect class="c e" x="514" y="40" width="13" height="13" rx="2.5" fill="#161b22" style="animation-delay:6.21s"/><rect class="c e" x="514" y="56" width="13" height="13" rx="2.5" fill="#161b22" style="animation-delay:6.25s"/><rect class="c e" x="514" y="72" width="13" height="13" rx="2.5" fill="#161b22" style="animation-delay:6.289s"/><rect class="c e" x="514" y="88" width="13" height="13" rx="2.5" fill="#161b22" style="animation-delay:6.329s"/><rect class="c e" x="514" y="104" width="13" height="13" rx="2.5" fill="#161b22" style="animation-delay:6.369s"/><rect class="c e" x="514" y="120" width="13" height="13" rx="2.5" fill="#161b22" style="animation-delay:6.409s"/><rect class="c e" x="530" y="24" width="13" height="13" rx="2.5" fill="#161b22" style="animation-delay:6.242s"/><rect class="c e" x="530" y="40" width="13" height="13" rx="2.5" fill="#161b22" style="animation-delay:6.282s"/><rect class="c e" x="530" y="56" width="13" height="13" rx="2.5" fill="#161b22" style="animation-delay:6.322s"/><rect class="c e" x="530" y="72" width="13" height="13" rx="2.5" fill="#161b22" style="animation-delay:6.362s"/><rect class="c e" x="530" y="88" width="13" height="13" rx="2.5" fill="#161b22" style="animation-delay:6.401s"/><rect class="c e" x="530" y="104" width="13" height="13" rx="2.5" fill="#161b22" style="animation-delay:6.441s"/><rect class="c e" x="530" y="120" width="13" height="13" rx="2.5" fill="#161b22" style="animation-delay:6.481s"/><rect class="c e" x="546" y="24" width="13" height="13" rx="2.5" fill="#161b22" style="animation-delay:6.315s"/><rect class="c e" x="546" y="40" width="13" height="13" rx="2.5" fill="#161b22" style="animation-delay:6.354s"/><rect class="c e" x="546" y="56" width="13" height="13" rx="2.5" fill="#161b22" style="animation-delay:6.394s"/><rect class="c e" x="546" y="72" width="13" height="13" rx="2.5" fill="#161b22" style="animation-delay:6.434s"/><rect class="c e" x="546" y="88" width="13" height="13" rx="2.5" fill="#161b22" style="animation-delay:6.474s"/><rect class="c e" x="546" y="104" width="13" height="13" rx="2.5" fill="#161b22" style="animation-delay:6.514s"/><rect class="c e" x="546" y="120" width="13" height="13" rx="2.5" fill="#161b22" style="animation-delay:6.553s"/><rect class="c e" x="562" y="24" width="13" height="13" rx="2.5" fill="#161b22" style="animation-delay:6.387s"/><rect class="c e" x="562" y="40" width="13" height="13" rx="2.5" fill="#161b22" style="animation-delay:6.427s"/><rect class="c e" x="562" y="56" width="13" height="13" rx="2.5" fill="#161b22" style="animation-delay:6.467s"/><rect class="c e" x="562" y="72" width="13" height="13" rx="2.5" fill="#161b22" style="animation-delay:6.506s"/><rect class="c e" x="562" y="88" width="13" height="13" rx="2.5" fill="#161b22" style="animation-delay:6.546s"/><rect class="c e" x="562" y="104" width="13" height="13" rx="2.5" fill="#161b22" style="animation-delay:6.586s"/><rect class="c e" x="562" y="120" width="13" height="13" rx="2.5" fill="#161b22" style="animation-delay:6.626s"/><rect class="c e" x="578" y="24" width="13" height="13" rx="2.5" fill="#161b22" style="animation-delay:6.459s"/><rect class="c e" x="578" y="40" width="13" height="13" rx="2.5" fill="#161b22" style="animation-delay:6.499s"/><rect class="c e" x="578" y="56" width="13" height="13" rx="2.5" fill="#161b22" style="animation-delay:6.539s"/><rect class="c e" x="578" y="72" width="13" height="13" rx="2.5" fill="#161b22" style="animation-delay:6.579s"/><rect class="c e" x="578" y="88" width="13" height="13" rx="2.5" fill="#161b22" style="animation-delay:6.618s"/><rect class="c e" x="578" y="104" width="13" height="13" rx="2.5" fill="#161b22" style="animation-delay:6.658s"/><rect class="c e" x="578" y="120" width="13" height="13" rx="2.5" fill="#161b22" style="animation-delay:6.698s"/><rect class="c e" x="594" y="24" width="13" height="13" rx="2.5" fill="#161b22" style="animation-delay:6.532s"/><rect class="c e" x="594" y="40" width="13" height="13" rx="2.5" fill="#161b22" style="animation-delay:6.571s"/><rect class="c e" x="594" y="56" width="13" height="13" rx="2.5" fill="#161b22" style="animation-delay:6.611s"/><rect class="c e" x="594" y="72" width="13" height="13" rx="2.5" fill="#161b22" style="animation-delay:6.651s"/><rect class="c e" x="594" y="88" width="13" height="13" rx="2.5" fill="#161b22" style="animation-delay:6.691s"/><rect class="c e" x="594" y="104" width="13" height="13" rx="2.5" fill="#161b22" style="animation-delay:6.731s"/><rect class="c e" x="594" y="120" width="13" height="13" rx="2.5" fill="#161b22" style="animation-delay:6.77s"/><rect class="c e" x="610" y="24" width="13" height="13" rx="2.5" fill="#161b22" style="animation-delay:6.604s"/><rect class="c e" x="610" y="40" width="13" height="13" rx="2.5" fill="#161b22" style="animation-delay:6.644s"/><rect class="c e" x="610" y="56" width="13" height="13" rx="2.5" fill="#161b22" style="animation-delay:6.684s"/><rect class="c e" x="610" y="72" width="13" height="13" rx="2.5" fill="#161b22" style="animation-delay:6.723s"/><rect class="c e" x="610" y="88" width="13" height="13" rx="2.5" fill="#161b22" style="animation-delay:6.763s"/><rect class="c e" x="610" y="104" width="13" height="13" rx="2.5" fill="#161b22" style="animation-delay:6.803s"/><rect class="c e" x="610" y="120" width="13" height="13" rx="2.5" fill="#161b22" style="animation-delay:6.843s"/><rect class="c e" x="626" y="24" width="13" height="13" rx="2.5" fill="#161b22" style="animation-delay:6.676s"/><rect class="c e" x="626" y="40" width="13" height="13" rx="2.5" fill="#161b22" style="animation-delay:6.716s"/><rect class="c e" x="626" y="56" width="13" height="13" rx="2.5" fill="#161b22" style="animation-delay:6.756s"/><rect class="c e" x="626" y="72" width="13" height="13" rx="2.5" fill="#161b22" style="animation-delay:6.796s"/><rect class="c e" x="626" y="88" width="13" height="13" rx="2.5" fill="#161b22" style="animation-delay:6.835s"/><rect class="c e" x="626" y="104" width="13" height="13" rx="2.5" fill="#161b22" style="animation-delay:6.875s"/><rect class="c e" x="626" y="120" width="13" height="13" rx="2.5" fill="#161b22" style="animation-delay:6.915s"/><rect class="c e" x="642" y="24" width="13" height="13" rx="2.5" fill="#161b22" style="animation-delay:6.749s"/><rect class="c e" x="642" y="40" width="13" height="13" rx="2.5" fill="#161b22" style="animation-delay:6.788s"/><rect class="c e" x="642" y="56" width="13" height="13" rx="2.5" fill="#161b22" style="animation-delay:6.828s"/><rect class="c e" x="642" y="72" width="13" height="13" rx="2.5" fill="#161b22" style="animation-delay:6.868s"/><rect class="c e" x="642" y="88" width="13" height="13" rx="2.5" fill="#161b22" style="animation-delay:6.908s"/><rect class="c e" x="642" y="104" width="13" height="13" rx="2.5" fill="#161b22" style="animation-delay:6.948s"/><rect class="c e" x="642" y="120" width="13" height="13" rx="2.5" fill="#161b22" style="animation-delay:6.987s"/><rect class="c e" x="658" y="24" width="13" height="13" rx="2.5" fill="#161b22" style="animation-delay:6.821s"/><rect class="c e" x="658" y="40" width="13" height="13" rx="2.5" fill="#161b22" style="animation-delay:6.861s"/><rect class="c g" x="658" y="56" width="13" height="13" rx="2.5" fill="#0e4429" style="animation-delay:6.901s"/><rect class="c e" x="658" y="72" width="13" height="13" rx="2.5" fill="#161b22" style="animation-delay:6.94s"/><rect class="c e" x="658" y="88" width="13" height="13" rx="2.5" fill="#161b22" style="animation-delay:6.98s"/><rect class="c e" x="658" y="104" width="13" height="13" rx="2.5" fill="#161b22" style="animation-delay:7.02s"/><rect class="c e" x="658" y="120" width="13" height="13" rx="2.5" fill="#161b22" style="animation-delay:7.06s"/><rect class="c e" x="674" y="24" width="13" height="13" rx="2.5" fill="#161b22" style="animation-delay:6.893s"/><rect class="c e" x="674" y="40" width="13" height="13" rx="2.5" fill="#161b22" style="animation-delay:6.933s"/><rect class="c e" x="674" y="56" width="13" height="13" rx="2.5" fill="#161b22" style="animation-delay:6.973s"/><rect class="c e" x="674" y="72" width="13" height="13" rx="2.5" fill="#161b22" style="animation-delay:7.013s"/><rect class="c e" x="674" y="88" width="13" height="13" rx="2.5" fill="#161b22" style="animation-delay:7.052s"/><rect class="c e" x="674" y="104" width="13" height="13" rx="2.5" fill="#161b22" style="animation-delay:7.092s"/><rect class="c e" x="674" y="120" width="13" height="13" rx="2.5" fill="#161b22" style="animation-delay:7.132s"/><rect class="c e" x="690" y="24" width="13" height="13" rx="2.5" fill="#161b22" style="animation-delay:6.966s"/><rect class="c e" x="690" y="40" width="13" height="13" rx="2.5" fill="#161b22" style="animation-delay:7.005s"/><rect class="c e" x="690" y="56" width="13" height="13" rx="2.5" fill="#161b22" style="animation-delay:7.045s"/><rect class="c e" x="690" y="72" width="13" height="13" rx="2.5" fill="#161b22" style="animation-delay:7.085s"/><rect class="c e" x="690" y="88" width="13" height="13" rx="2.5" fill="#161b22" style="animation-delay:7.125s"/><rect class="c e" x="690" y="104" width="13" height="13" rx="2.5" fill="#161b22" style="animation-delay:7.165s"/><rect class="c e" x="690" y="120" width="13" height="13" rx="2.5" fill="#161b22" style="animation-delay:7.204s"/><rect class="c e" x="706" y="24" width="13" height="13" rx="2.5" fill="#161b22" style="animation-delay:7.038s"/><rect class="c e" x="706" y="40" width="13" height="13" rx="2.5" fill="#161b22" style="animation-delay:7.078s"/><rect class="c e" x="706" y="56" width="13" height="13" rx="2.5" fill="#161b22" style="animation-delay:7.118s"/><rect class="c e" x="706" y="72" width="13" height="13" rx="2.5" fill="#161b22" style="animation-delay:7.157s"/><rect class="c e" x="706" y="88" width="13" height="13" rx="2.5" fill="#161b22" style="animation-delay:7.197s"/><rect class="c e" x="706" y="104" width="13" height="13" rx="2.5" fill="#161b22" style="animation-delay:7.237s"/><rect class="c e" x="706" y="120" width="13" height="13" rx="2.5" fill="#161b22" style="animation-delay:7.277s"/><rect class="c e" x="722" y="24" width="13" height="13" rx="2.5" fill="#161b22" style="animation-delay:7.11s"/><rect class="c e" x="722" y="40" width="13" height="13" rx="2.5" fill="#161b22" style="animation-delay:7.15s"/><rect class="c e" x="722" y="56" width="13" height="13" rx="2.5" fill="#161b22" style="animation-delay:7.19s"/><rect class="c e" x="722" y="72" width="13" height="13" rx="2.5" fill="#161b22" style="animation-delay:7.23s"/><rect class="c e" x="722" y="88" width="13" height="13" rx="2.5" fill="#161b22" style="animation-delay:7.269s"/><rect class="c e" x="722" y="104" width="13" height="13" rx="2.5" fill="#161b22" style="animation-delay:7.309s"/><rect class="c e" x="722" y="120" width="13" height="13" rx="2.5" fill="#161b22" style="animation-delay:7.349s"/><rect class="c e" x="738" y="24" width="13" height="13" rx="2.5" fill="#161b22" style="animation-delay:7.183s"/><rect class="c e" x="738" y="40" width="13" height="13" rx="2.5" fill="#161b22" style="animation-delay:7.222s"/><rect class="c e" x="738" y="56" width="13" height="13" rx="2.5" fill="#161b22" style="animation-delay:7.262s"/><rect class="c e" x="738" y="72" width="13" height="13" rx="2.5" fill="#161b22" style="animation-delay:7.302s"/><rect class="c e" x="738" y="88" width="13" height="13" rx="2.5" fill="#161b22" style="animation-delay:7.342s"/><rect class="c e" x="738" y="104" width="13" height="13" rx="2.5" fill="#161b22" style="animation-delay:7.382s"/><rect class="c e" x="738" y="120" width="13" height="13" rx="2.5" fill="#161b22" style="animation-delay:7.421s"/><rect class="c e" x="754" y="24" width="13" height="13" rx="2.5" fill="#161b22" style="animation-delay:7.255s"/><rect class="c e" x="754" y="40" width="13" height="13" rx="2.5" fill="#161b22" style="animation-delay:7.295s"/><rect class="c e" x="754" y="56" width="13" height="13" rx="2.5" fill="#161b22" style="animation-delay:7.335s"/><rect class="c e" x="754" y="72" width="13" height="13" rx="2.5" fill="#161b22" style="animation-delay:7.374s"/><rect class="c e" x="754" y="88" width="13" height="13" rx="2.5" fill="#161b22" style="animation-delay:7.414s"/><rect class="c e" x="754" y="104" width="13" height="13" rx="2.5" fill="#161b22" style="animation-delay:7.454s"/><rect class="c e" x="754" y="120" width="13" height="13" rx="2.5" fill="#161b22" style="animation-delay:7.494s"/><rect class="c e" x="770" y="24" width="13" height="13" rx="2.5" fill="#161b22" style="animation-delay:7.327s"/><rect class="c e" x="770" y="40" width="13" height="13" rx="2.5" fill="#161b22" style="animation-delay:7.367s"/><rect class="c e" x="770" y="56" width="13" height="13" rx="2.5" fill="#161b22" style="animation-delay:7.407s"/><rect class="c e" x="770" y="72" width="13" height="13" rx="2.5" fill="#161b22" style="animation-delay:7.447s"/><rect class="c e" x="770" y="88" width="13" height="13" rx="2.5" fill="#161b22" style="animation-delay:7.486s"/><rect class="c e" x="770" y="104" width="13" height="13" rx="2.5" fill="#161b22" style="animation-delay:7.526s"/><rect class="c e" x="770" y="120" width="13" height="13" rx="2.5" fill="#161b22" style="animation-delay:7.566s"/><rect class="c e" x="786" y="24" width="13" height="13" rx="2.5" fill="#161b22" style="animation-delay:7.4s"/><rect class="c e" x="786" y="40" width="13" height="13" rx="2.5" fill="#161b22" style="animation-delay:7.439s"/><rect class="c e" x="786" y="56" width="13" height="13" rx="2.5" fill="#161b22" style="animation-delay:7.479s"/><rect class="c e" x="786" y="72" width="13" height="13" rx="2.5" fill="#161b22" style="animation-delay:7.519s"/><rect class="c e" x="786" y="88" width="13" height="13" rx="2.5" fill="#161b22" style="animation-delay:7.559s"/><rect class="c e" x="786" y="104" width="13" height="13" rx="2.5" fill="#161b22" style="animation-delay:7.599s"/><rect class="c e" x="786" y="120" width="13" height="13" rx="2.5" fill="#161b22" style="animation-delay:7.638s"/><rect class="c e" x="802" y="24" width="13" height="13" rx="2.5" fill="#161b22" style="animation-delay:7.472s"/><rect class="c e" x="802" y="40" width="13" height="13" rx="2.5" fill="#161b22" style="animation-delay:7.512s"/><rect class="c e" x="802" y="56" width="13" height="13" rx="2.5" fill="#161b22" style="animation-delay:7.552s"/><rect class="c e" x="802" y="72" width="13" height="13" rx="2.5" fill="#161b22" style="animation-delay:7.591s"/><rect class="c e" x="802" y="88" width="13" height="13" rx="2.5" fill="#161b22" style="animation-delay:7.631s"/><rect class="c e" x="802" y="104" width="13" height="13" rx="2.5" fill="#161b22" style="animation-delay:7.671s"/><rect class="c e" x="802" y="120" width="13" height="13" rx="2.5" fill="#161b22" style="animation-delay:7.711s"/><rect class="c e" x="818" y="24" width="13" height="13" rx="2.5" fill="#161b22" style="animation-delay:7.544s"/><rect class="c g" x="818" y="40" width="13" height="13" rx="2.5" fill="#0e4429" style="animation-delay:7.584s"/><rect class="c e" x="818" y="56" width="13" height="13" rx="2.5" fill="#161b22" style="animation-delay:7.624s"/><rect class="c e" x="818" y="72" width="13" height="13" rx="2.5" fill="#161b22" style="animation-delay:7.664s"/><rect class="c e" x="818" y="88" width="13" height="13" rx="2.5" fill="#161b22" style="animation-delay:7.703s"/><rect class="c e" x="818" y="104" width="13" height="13" rx="2.5" fill="#161b22" style="animation-delay:7.743s"/><rect class="c e" x="818" y="120" width="13" height="13" rx="2.5" fill="#161b22" style="animation-delay:7.783s"/><rect class="c e" x="834" y="24" width="13" height="13" rx="2.5" fill="#161b22" style="animation-delay:7.617s"/><rect class="c g" x="834" y="40" width="13" height="13" rx="2.5" fill="#0e4429" style="animation-delay:7.656s"/><rect class="c e" x="834" y="56" width="13" height="13" rx="2.5" fill="#161b22" style="animation-delay:7.696s"/><rect class="c e" x="834" y="72" width="13" height="13" rx="2.5" fill="#161b22" style="animation-delay:7.736s"/><rect class="c e" x="834" y="88" width="13" height="13" rx="2.5" fill="#161b22" style="animation-delay:7.776s"/><rect class="c e" x="834" y="104" width="13" height="13" rx="2.5" fill="#161b22" style="animation-delay:7.816s"/><rect class="c e" x="834" y="120" width="13" height="13" rx="2.5" fill="#161b22" style="animation-delay:7.855s"/><rect class="c e" x="850" y="24" width="13" height="13" rx="2.5" fill="#161b22" style="animation-delay:7.689s"/><rect class="c g" x="850" y="40" width="13" height="13" rx="2.5" fill="#0e4429" style="animation-delay:7.729s"/><rect class="c e" x="850" y="56" width="13" height="13" rx="2.5" fill="#161b22" style="animation-delay:7.769s"/><rect class="c e" x="850" y="72" width="13" height="13" rx="2.5" fill="#161b22" style="animation-delay:7.808s"/><rect class="c e" x="850" y="88" width="13" height="13" rx="2.5" fill="#161b22" style="animation-delay:7.848s"/><rect class="c e" x="850" y="104" width="13" height="13" rx="2.5" fill="#161b22" style="animation-delay:7.888s"/><rect class="c e" x="850" y="120" width="13" height="13" rx="2.5" fill="#161b22" style="animation-delay:7.928s"/><rect class="c g" x="866" y="24" width="13" height="13" rx="2.5" fill="#006d32" style="animation-delay:7.761s"/>
<text class="total" x="34" y="152">500 contributions in the last year</text>
</svg>