<svg xmlns="http://www.w3.org/2000/svg" width="888" height="158" viewBox="0 0 888 158" font-family="-apple-system,BlinkMacSystemFont,Segoe UI,Helvetica,Arial,sans-serif">
<style>
  text.lbl { fill:#7d8590; font-size:12px; font-weight:600; }
  text.total { fill:#e6edf3; font-size:14px; font-weight:700; }
  .c { transform-box:fill-box; transform-origin:center; opacity:0; animation:pop 0.7s ease-out both; }
  .g { animation:pop 0.7s ease-out both, flash 0.8999999999999999s ease-out both; }
  
  @keyframes pop { 0%{opacity:0;transform:scale(.3)} 60%{opacity:1;transform:scale(1.05)} 100%{opacity:1;transform:scale(1)} }
  @keyframes flash { 0%{filter:brightness(2.2)} 50%{filter:brightness(2.2)} 100%{filter:brightness(1)} }
</style>
<rect width="888" height="158" fill="none"/>
<text class="lbl" x="34" y="16">Jul</text><text class="lbl" x="66" y="16">Aug</text><text class="lbl" x="146" y="16">Sep</text><text class="lbl" x="210" y="16">Oct</text><text class="lbl" x="274" y="16">Nov</text><text class="lbl" x="354" y="16">Dec</text><text class="lbl" x="418" y="16">Jan</text><text class="lbl" x="482" y="16">Feb</text><text class="lbl" x="546" y="16">Mar</text><text class="lbl" x="626" y="16">Apr</text><text class="lbl" x="690" y="16">May</text><text class="lbl" x="770" y="16">Jun</text><text class="lbl" x="834" y="16">Jul</text><text class="lbl" x="2" y="51">Mon</text><text class="lbl" x="2" y="83">Wed</text><text class="lbl" x="2" y="115">Fri</text>
<rect class="c e" x="34" y="24" width="13" height="13" rx="2.5" fill="#161b22" style="animation-delay:2.9s"/><rect class="c e" x="34" y="40" width="13" height="13" rx="2.5" fill="#161b22" style="animation-delay:2.94s"/><rect class="c e" x="34" y="56" width="13" height="13" rx="2.5" fill="#161b22" style="animation-delay:2.98s"/><rect class="c e" x="34" y="72" width="13" height="13" rx="2.5" fill="#161b22" style="animation-delay:3.019s"/><rect class="c e" x="34" y="88" width="13" height="13" rx="2.5" fill="#161b22" style="animation-delay:3.059s"/><rect class="c e" x="34" y="104" width="13" height="13" rx="2.5" fill="#161b22" style="animation-delay:3.099s"/><rect class="c e" x="34" y="120" width="13" height="13" rx="2.5" fill="#161b22" style="animation-delay:3.139s"/><rect class="c e" x="50" y="24" width="13" height="13" rx="2.5" fill="#161b22" style="animation-delay:2.972s"/><rect class="c e" x="50" y="40" width="13" height="13" rx="2.5" fill="#161b22" style="animation-delay:3.012s"/><rect class="c e" x="50" y="56" width="13" height="13" rx="2.5" fill="#161b22" style="animation-delay:3.052s"/><rect class="c e" x="50" y="72" width="13" height="13" rx="2.5" fill="#161b22" style="animation-delay:3.092s"/><rect class="c e" x="50" y="88" width="13" height="13" rx="2.5" fill="#161b22" style="animation-delay:3.131s"/><rect class="c e" x="50" y="104" width="13" height="13" rx="2.5" fill="#161b22" style="animation-delay:3.171s"/><rect class="c g" x="50" y="120" width="13" height="13" rx="2.5" fill="#006d32" style="animation-delay:3.211s"/><rect class="c g" x="66" y="24" width="13" height="13" rx="2.5" fill="#006d32" style="animation-delay:3.045s"/><rect class="c g" x="66" y="40" width="13" height="13" rx="2.5" fill="#0e4429" style="animation-delay:3.084s"/><rect class="c g" x="66" y="56" width="13" height="13" rx="2.5" fill="#39d353" style="animation-delay:3.124s"/><rect class="c g" x="66" y="72" width="13" height="13" rx="2.5" fill="#26a641" style="animation-delay:3.164s"/><rect class="c g" x="66" y="88" width="13" height="13" rx="2.5" fill="#39d353" style="animation-delay:3.204s"/><rect class="c g" x="66" y="104" width="13" height="13" rx="2.5" fill="#39d353" style="animation-delay:3.244s"/><rect class="c g" x="66" y="120" width="13" height="13" rx="2.5" fill="#39d353" style="animation-delay:3.283s"/><rect class="c e" x="82" y="24" width="13" height="13" rx="2.5" fill="#161b22" style="animation-delay:3.117s"/><rect class="c e" x="82" y="40" width="13" height="13" rx="2.5" fill="#161b22" style="animation-delay:3.157s"/><rect class="c e" x="82" y="56" width="13" height="13" rx="2.5" fill="#161b22" style="animation-delay:3.197s"/><rect class="c g" x="82" y="72" width="13" height="13" rx="2.5" fill="#39d353" style="animation-delay:3.236s"/><rect class="c g" x="82" y="88" width="13" height="13" rx="2.5" fill="#0e4429" style="animation-delay:3.276s"/><rect class="c e" x="82" y="104" width="13" height="13" rx="2.5" fill="#161b22" style="animation-delay:3.316s"/><rect class="c e" x="82" y="120" width="13" height="13" rx="2.5" fill="#161b22" style="animation-delay:3.356s"/><rect class="c e" x="98" y="24" width="13" height="13" rx="2.5" fill="#161b22" style="animation-delay:3.189s"/><rect class="c e" x="98" y="40" width="13" height="13" rx="2.5" fill="#161b22" style="animation-delay:3.229s"/><rect class="c e" x="98" y="56" width="13" height="13" rx="2.5" fill="#161b22" style="animation-delay:3.269s"/><rect class="c e" x="98" y="72" width="13" height="13" rx="2.5" fill="#161b22" style="animation-delay:3.309s"/><rect class="c e" x="98" y="88" width="13" height="13" rx="2.5" fill="#161b22" style="animation-delay:3.348s"/><rect class="c g" x="98" y="104" width="13" height="13" rx="2.5" fill="#39d353" style="animation-delay:3.388s"/><rect class="c e" x="98" y="120" width="13" height="13" rx="2.5" fill="#161b22" style="animation-delay:3.428s"/><rect class="c e" x="114" y="24" width="13" height="13" rx="2.5" fill="#161b22" style="animation-delay:3.262s"/><rect class="c e" x="114" y="40" width="13" height="13" rx="2.5" fill="#161b22" style="animation-delay:3.301s"/><rect class="c e" x="114" y="56" width="13" height="13" rx="2.5" fill="#161b22" style="animation-delay:3.341s"/><rect class="c e" x="114" y="72" width="13" height="13" rx="2.5" fill="#161b22" style="animation-delay:3.381s"/><rect class="c e" x="114" y="88" width="13" height="13" rx="2.5" fill="#161b22" style="animation-delay:3.421s"/><rect class="c e" x="114" y="104" width="13" height="13" rx="2.5" fill="#161b22" style="animation-delay:3.461s"/><rect class="c e" x="114" y="120" width="13" height="13" rx="2.5" fill="#161b22" style="animation-delay:3.5s"/><rect class="c g" x="130" y="24" width="13" height="13" rx="2.5" fill="#0e4429" style="animation-delay:3.334s"/><rect class="c g" x="130" y="40" width="13" height="13" rx="2.5" fill="#0e4429" style="animation-delay:3.374s"/><rect class="c e" x="130" y="56" width="13" height="13" rx="2.5" fill="#161b22" style="animation-delay:3.414s"/><rect class="c e" x="130" y="72" width="13" height="13" rx="2.5" fill="#161b22" style="animation-delay:3.453s"/><rect class="c g" x="130" y="88" width="13" height="13" rx="2.5" fill="#0e4429" style="animation-delay:3.493s"/><rect class="c g" x="130" y="104" width="13" height="13" rx="2.5" fill="#0e4429" style="animation-delay:3.533s"/><rect class="c e" x="130" y="120" width="13" height="13" rx="2.5" fill="#161b22" style="animation-delay:3.573s"/><rect class="c e" x="146" y="24" width="13" height="13" rx="2.5" fill="#161b22" style="animation-delay:3.406s"/><rect class="c e" x="146" y="40" width="13" height="13" rx="2.5" fill="#161b22" style="animation-delay:3.446s"/><rect class="c e" x="146" y="56" width="13" height="13" rx="2.5" fill="#161b22" style="animation-delay:3.486s"/><rect class="c e" x="146" y="72" width="13" height="13" rx="2.5" fill="#161b22" style="animation-delay:3.526s"/><rect class="c e" x="146" y="88" width="13" height="13" rx="2.5" fill="#161b22" style="animation-delay:3.565s"/><rect class="c g" x="146" y="104" width="13" height="13" rx="2.5" fill="#0e4429" style="animation-delay:3.605s"/><rect class="c g" x="146" y="120" width="13" height="13" rx="2.5" fill="#0e4429" style="animation-delay:3.645s"/><rect class="c e" x="162" y="24" width="13" height="13" rx="2.5" fill="#161b22" style="animation-delay:3.479s"/><rect class="c e" x="162" y="40" width="13" height="13" rx="2.5" fill="#161b22" style="animation-delay:3.518s"/><rect class="c e" x="162" y="56" width="13" height="13" rx="2.5" fill="#161b22" style="animation-delay:3.558s"/><rect class="c e" x="162" y="72" width="13" height="13" rx="2.5" fill="#161b22" style="animation-delay:3.598s"/><rect class="c e" x="162" y="88" width="13" height="13" rx="2.5" fill="#161b22" style="animation-delay:3.638s"/><rect class="c e" x="162" y="104" width="13" height="13" rx="2.5" fill="#161b22" style="animation-delay:3.678s"/><rect class="c e" x="162" y="120" width="13" height="13" rx="2.5" fill="#161b22" style="animation-delay:3.717s"/><rect class="c g" x="178" y="24" width="13" height="13" rx="2.5" fill="#0e4429" style="animation-delay:3.551s"/><rect class="c e" x="178" y="40" width="13" height="13" rx="2.5" fill="#161b22" style="animation-delay:3.591s"/><rect class="c e" x="178" y="56" width="13" height="13" rx="2.5" fill="#161b22" style="animation-delay:3.631s"/><rect class="c e" x="178" y="72" width="13" height="13" rx="2.5" fill="#161b22" style="animation-delay:3.67s"/><rect class="c e" x="178" y="88" width="13" height="13" rx="2.5" fill="#161b22" style="animation-delay:3.71s"/><rect class="c e" x="178" y="104" width="13" height="13" rx="2.5" fill="#161b22" style="animation-delay:3.75s"/><rect class="c e" x="178" y="120" width="13" height="13" rx="2.5" fill="#161b22" style="animation-delay:3.79s"/><rect class="c e" x="194" y="24" width="13" height="13" rx="2.5" fill="#161b22" style="animation-delay:3.623s"/><rect class="c e" x="194" y="40" width="13" height="13" rx="2.5" fill="#161b22" style="animation-delay:3.663s"/><rect class="c e" x="194" y="56" width="13" height="13" rx="2.5" fill="#161b22" style="animation-delay:3.703s"/><rect class="c e" x="194" y="72" width="13" height="13" rx="2.5" fill="#161b22" style="animation-delay:3.743s"/><rect class="c e" x="194" y="88" width="13" height="13" rx="2.5" fill="#161b22" style="animation-delay:3.782s"/><rect class="c e" x="194" y="104" width="13" height="13" rx="2.5" fill="#161b22" style="animation-delay:3.822s"/><rect class="c e" x="194" y="120" width="13" height="13" rx="2.5" fill="#161b22" style="animation-delay:3.862s"/><rect class="c e" x="210" y="24" width="13" height="13" rx="2.5" fill="#161b22" style="animation-delay:3.696s"/><rect class="c e" x="210" y="40" width="13" height="13" rx="2.5" fill="#161b22" style="animation-delay:3.735s"/><rect class="c e" x="210" y="56" width="13" height="13" rx="2.5" fill="#161b22" style="animation-delay:3.775s"/><rect class="c e" x="210" y="72" width="13" height="13" rx="2.5" fill="#161b22" style="animation-delay:3.815s"/><rect class="c e" x="210" y="88" width="13" height="13" rx="2.5" fill="#161b22" style="animation-delay:3.855s"/><rect class="c e" x="210" y="104" width="13" height="13" rx="2.5" fill="#161b22" style="animation-delay:3.895s"/><rect class="c e" x="210" y="120" width="13" height="13" rx="2.5" fill="#161b22" style="animation-delay:3.934s"/><rect class="c e" x="226" y="24" width="13" height="13" rx="2.5" fill="#161b22" style="animation-delay:3.768s"/><rect class="c e" x="226" y="40" width="13" height="13" rx="2.5" fill="#161b22" style="animation-delay:3.808s"/><rect class="c e" x="226" y="56" width="13" height="13" rx="2.5" fill="#161b22" style="animation-delay:3.848s"/><rect class="c e" x="226" y="72" width="13" height="13" rx="2.5" fill="#161b22" style="animation-delay:3.887s"/><rect class="c e" x="226" y="88" width="13" height="13" rx="2.5" fill="#161b22" style="animation-delay:3.927s"/><rect class="c e" x="226" y="104" width="13" height="13" rx="2.5" fill="#161b22" style="animation-delay:3.967s"/><rect class="c e" x="226" y="120" width="13" height="13" rx="2.5" fill="#161b22" style="animation-delay:4.007s"/><rect class="c e" x="242" y="24" width="13" height="13" rx="2.5" fill="#161b22" style="animation-delay:3.84s"/><rect class="c e" x="242" y="40" width="13" height="13" rx="2.5" fill="#161b22" style="animation-delay:3.88s"/><rect class="c e" x="242" y="56" width="13" height="13" rx="2.5" fill="#161b22" style="animation-delay:3.92s"/><rect class="c e" x="242" y="72" width="13" height="13" rx="2.5" fill="#161b22" style="animation-delay:3.96s"/><rect class="c e" x="242" y="88" width="13" height="13" rx="2.5" fill="#161b22" style="animation-delay:3.999s"/><rect class="c e" x="242" y="104" width="13" height="13" rx="2.5" fill="#161b22" style="animation-delay:4.039s"/><rect class="c e" x="242" y="120" width="13" height="13" rx="2.5" fill="#161b22" style="animation-delay:4.079s"/><rect class="c e" x="258" y="24" width="13" height="13" rx="2.5" fill="#161b22" style="animation-delay:3.913s"/><rect class="c e" x="258" y="40" width="13" height="13" rx="2.5" fill="#161b22" style="animation-delay:3.952s"/><rect class="c g" x="258" y="56" width="13" height="13" rx="2.5" fill="#39d353" style="animation-delay:3.992s"/><rect class="c e" x="258" y="72" width="13" height="13" rx="2.5" fill="#161b22" style="animation-delay:4.032s"/><rect class="c e" x="258" y="88" width="13" height="13" rx="2.5" fill="#161b22" style="animation-delay:4.072s"/><rect class="c g" x="258" y="104" width="13" height="13" rx="2.5" fill="#39d353" style="animation-delay:4.112s"/><rect class="c g" x="258" y="120" width="13" height="13" rx="2.5" fill="#0e4429" style="animation-delay:4.151s"/><rect class="c e" x="274" y="24" width="13" height="13" rx="2.5" fill="#161b22" style="animation-delay:3.985s"/><rect class="c e" x="274" y="40" width="13" height="13" rx="2.5" fill="#161b22" style="animation-delay:4.025s"/><rect class="c e" x="274" y="56" width="13" height="13" rx="2.5" fill="#161b22" style="animation-delay:4.065s"/><rect class="c e" x="274" y="72" width="13" height="13" rx="2.5" fill="#161b22" style="animation-delay:4.104s"/><rect class="c g" x="274" y="88" width="13" height="13" rx="2.5" fill="#0e4429" style="animation-delay:4.144s"/><rect class="c g" x="274" y="104" width="13" height="13" rx="2.5" fill="#0e4429" style="animation-delay:4.184s"/><rect class="c e" x="274" y="120" width="13" height="13" rx="2.5" fill="#161b22" style="animation-delay:4.224s"/><rect class="c e" x="290" y="24" width="13" height="13" rx="2.5" fill="#161b22" style="animation-delay:4.057s"/><rect class="c e" x="290" y="40" width="13" height="13" rx="2.5" fill="#161b22" style="animation-delay:4.097s"/><rect class="c e" x="290" y="56" width="13" height="13" rx="2.5" fill="#161b22" style="animation-delay:4.137s"/><rect class="c g" x="290" y="72" width="13" height="13" rx="2.5" fill="#006d32" style="animation-delay:4.177s"/><rect class="c e" x="290" y="88" width="13" height="13" rx="2.5" fill="#161b22" style="animation-delay:4.216s"/><rect class="c e" x="290" y="104" width="13" height="13" rx="2.5" fill="#161b22" style="animation-delay:4.256s"/><rect class="c e" x="290" y="120" width="13" height="13" rx="2.5" fill="#161b22" style="animation-delay:4.296s"/><rect class="c e" x="306" y="24" width="13" height="13" rx="2.5" fill="#161b22" style="animation-delay:4.13s"/><rect class="c e" x="306" y="40" width="13" height="13" rx="2.5" fill="#161b22" style="animation-delay:4.169s"/><rect class="c e" x="306" y="56" width="13" height="13" rx="2.5" fill="#161b22" style="animation-delay:4.209s"/><rect class="c e" x="306" y="72" width="13" height="13" rx="2.5" fill="#161b22" style="animation-delay:4.249s"/><rect class="c e" x="306" y="88" width="13" height="13" rx="2.5" fill="#161b22" style="animation-delay:4.289s"/><rect class="c e" x="306" y="104" width="13" height="13" rx="2.5" fill="#161b22" style="animation-delay:4.329s"/><rect class="c e" x="306" y="120" width="13" height="13" rx="2.5" fill="#161b22" style="animation-delay:4.368s"/><rect class="c e" x="322" y="24" width="13" height="13" rx="2.5" fill="#161b22" style="animation-delay:4.202s"/><rect class="c e" x="322" y="40" width="13" height="13" rx="2.5" fill="#161b22" style="animation-delay:4.242s"/><rect class="c e" x="322" y="56" width="13" height="13" rx="2.5" fill="#161b22" style="animation-delay:4.282s"/><rect class="c e" x="322" y="72" width="13" height="13" rx="2.5" fill="#161b22" style="animation-delay:4.321s"/><rect class="c e" x="322" y="88" width="13" height="13" rx="2.5" fill="#161b22" style="animation-delay:4.361s"/><rect class="c e" x="322" y="104" width="13" height="13" rx="2.5" fill="#161b22" style="animation-delay:4.401s"/><rect class="c e" x="322" y="120" width="13" height="13" rx="2.5" fill="#161b22" style="animation-delay:4.441s"/><rect class="c e" x="338" y="24" width="13" height="13" rx="2.5" fill="#161b22" style="animation-delay:4.274s"/><rect class="c e" x="338" y="40" width="13" height="13" rx="2.5" fill="#161b22" style="animation-delay:4.314s"/><rect class="c e" x="338" y="56" width="13" height="13" rx="2.5" fill="#161b22" style="animation-delay:4.354s"/><rect class="c e" x="338" y="72" width="13" height="13" rx="2.5" fill="#161b22" style="animation-delay:4.394s"/><rect class="c e" x="338" y="88" width="13" height="13" rx="2.5" fill="#161b22" style="animation-delay:4.433s"/><rect class="c e" x="338" y="104" width="13" height="13" rx="2.5" fill="#161b22" style="animation-delay:4.473s"/><rect class="c e" x="338" y="120" width="13" height="13" rx="2.5" fill="#161b22" style="animation-delay:4.513s"/><rect class="c e" x="354" y="24" width="13" height="13" rx="2.5" fill="#161b22" style="animation-delay:4.347s"/><rect class="c e" x="354" y="40" width="13" height="13" rx="2.5" fill="#161b22" style="animation-delay:4.386s"/><rect class="c e" x="354" y="56" width="13" height="13" rx="2.5" fill="#161b22" style="animation-delay:4.426s"/><rect class="c e" x="354" y="72" width="13" height="13" rx="2.5" fill="#161b22" style="animation-delay:4.466s"/><rect class="c e" x="354" y="88" width="13" height="13" rx="2.5" fill="#161b22" style="animation-delay:4.506s"/><rect class="c e" x="354" y="104" width="13" height="13" rx="2.5" fill="#161b22" style="animation-delay:4.546s"/><rect class="c e" x="354" y="120" width="13" height="13" rx="2.5" fill="#161b22" style="animation-delay:4.585s"/><rect class="c e" x="370" y="24" width="13" height="13" rx="2.5" fill="#161b22" style="animation-delay:4.419s"/><rect class="c e" x="370" y="40" width="13" height="13" rx="2.5" fill="#161b22" style="animation-delay:4.459s"/><rect class="c e" x="370" y="56" width="13" height="13" rx="2.5" fill="#161b22" style="animation-delay:4.499s"/><rect class="c e" x="370" y="72" width="13" height="13" rx="2.5" fill="#161b22" style="animation-delay:4.538s"/><rect class="c e" x="370" y="88" width="13" height="13" rx="2.5" fill="#161b22" style="animation-delay:4.578s"/><rect class="c e" x="370" y="104" width="13" height="13" rx="2.5" fill="#161b22" style="animation-delay:4.618s"/><rect class="c e" x="370" y="120" width="13" height="13" rx="2.5" fill="#161b22" style="animation-delay:4.658s"/><rect class="c e" x="386" y="24" width="13" height="13" rx="2.5" fill="#161b22" style="animation-delay:4.491s"/><rect class="c e" x="386" y="40" width="13" height="13" rx="2.5" fill="#161b22" style="animation-delay:4.531s"/><rect class="c e" x="386" y="56" width="13" height="13" rx="2.5" fill="#161b22" style="animation-delay:4.571s"/><rect class="c e" x="386" y="72" width="13" height="13" rx="2.5" fill="#161b22" style="animation-delay:4.611s"/><rect class="c e" x="386" y="88" width="13" height="13" rx="2.5" fill="#161b22" style="animation-delay:4.65s"/><rect class="c e" x="386" y="104" width="13" height="13" rx="2.5" fill="#161b22" style="animation-delay:4.69s"/><rect class="c e" x="386" y="120" width="13" height="13" rx="2.5" fill="#161b22" style="animation-delay:4.73s"/><rect class="c e" x="402" y="24" width="13" height="13" rx="2.5" fill="#161b22" style="animation-delay:4.564s"/><rect class="c e" x="402" y="40" width="13" height="13" rx="2.5" fill="#161b22" style="animation-delay:4.603s"/><rect class="c e" x="402" y="56" width="13" height="13" rx="2.5" fill="#161b22" style="animation-delay:4.643s"/><rect class="c e" x="402" y="72" width="13" height="13" rx="2.5" fill="#161b22" style="animation-delay:4.683s"/><rect class="c e" x="402" y="88" width="13" height="13" rx="2.5" fill="#161b22" style="animation-delay:4.723s"/><rect class="c e" x="402" y="104" width="13" height="13" rx="2.5" fill="#161b22" style="animation-delay:4.763s"/><rect class="c e" x="402" y="120" width="13" height="13" rx="2.5" fill="#161b22" style="animation-delay:4.802s"/><rect class="c e" x="418" y="24" width="13" height="13" rx="2.5" fill="#161b22" style="animation-delay:4.636s"/><rect class="c e" x="418" y="40" width="13" height="13" rx="2.5" fill="#161b22" style="animation-delay:4.676s"/><rect class="c e" x="418" y="56" width="13" height="13" rx="2.5" fill="#161b22" style="animation-delay:4.716s"/><rect class="c e" x="418" y="72" width="13" height="13" rx="2.5" fill="#161b22" style="animation-delay:4.755s"/><rect class="c e" x="418" y="88" width="13" height="13" rx="2.5" fill="#161b22" style="animation-delay:4.795s"/><rect class="c e" x="418" y="104" width="13" height="13" rx="2.5" fill="#161b22" style="animation-delay:4.835s"/><rect class="c e" x="418" y="120" width="13" height="13" rx="2.5" fill="#161b22" style="animation-delay:4.875s"/><rect class="c e" x="434" y="24" width="13" height="13" rx="2.5" fill="#161b22" style="animation-delay:4.708s"/><rect class="c e" x="434" y="40" width="13" height="13" rx="2.5" fill="#161b22" style="animation-delay:4.748s"/><rect class="c e" x="434" y="56" width="13" height="13" rx="2.5" fill="#161b22" style="animation-delay:4.788s"/><rect class="c e" x="434" y="72" width="13" height="13" rx="2.5" fill="#161b22" style="animation-delay:4.828s"/><rect class="c e" x="434" y="88" width="13" height="13" rx="2.5" fill="#161b22" style="animation-delay:4.867s"/><rect class="c e" x="434" y="104" width="13" height="13" rx="2.5" fill="#161b22" style="animation-delay:4.907s"/><rect class="c e" x="434" y="120" width="13" height="13" rx="2.5" fill="#161b22" style="animation-delay:4.947s"/><rect class="c e" x="450" y="24" width="13" height="13" rx="2.5" fill="#161b22" style="animation-delay:4.781s"/><rect class="c e" x="450" y="40" width="13" height="13" rx="2.5" fill="#161b22" style="animation-delay:4.82s"/><rect class="c e" x="450" y="56" width="13" height="13" rx="2.5" fill="#161b22" style="animation-delay:4.86s"/><rect class="c e" x="450" y="72" width="13" height="13" rx="2.5" fill="#161b22" style="animation-delay:4.9s"/><rect class="c e" x="450" y="88" width="13" height="13" rx="2.5" fill="#161b22" style="animation-delay:4.94s"/><rect class="c e" x="450" y="104" width="13" height="13" rx="2.5" fill="#161b22" style="animation-delay:4.98s"/><rect class="c e" x="450" y="120" width="13" height="13" rx="2.5" fill="#161b22" style="animation-delay:5.019s"/><rect class="c e" x="466" y="24" width="13" height="13" rx="2.5" fill="#161b22" style="animation-delay:4.853s"/><rect class="c e" x="466" y="40" width="13" height="13" rx="2.5" fill="#161b22" style="animation-delay:4.893s"/><rect class="c e" x="466" y="56" width="13" height="13" rx="2.5" fill="#161b22" style="animation-delay:4.933s"/><rect class="c e" x="466" y="72" width="13" height="13" rx="2.5" fill="#161b22" style="animation-delay:4.972s"/><rect class="c e" x="466" y="88" width="13" height="13" rx="2.5" fill="#161b22" style="animation-delay:5.012s"/><rect class="c e" x="466" y="104" width="13" height="13" rx="2.5" fill="#161b22" style="animation-delay:5.052s"/><rect class="c e" x="466" y="120" width="13" height="13" rx="2.5" fill="#161b22" style="animation-delay:5.092s"/><rect class="c e" x="482" y="24" width="13" height="13" rx="2.5" fill="#161b22" style="animation-delay:4.925s"/><rect class="c e" x="482" y="40" width="13" height="13" rx="2.5" fill="#161b22" style="animation-delay:4.965s"/><rect class="c e" x="482" y="56" width="13" height="13" rx="2.5" fill="#161b22" style="animation-delay:5.005s"/><rect class="c e" x="482" y="72" width="13" height="13" rx="2.5" fill="#161b22" style="animation-delay:5.045s"/><rect class="c e" x="482" y="88" width="13" height="13" rx="2.5" fill="#161b22" style="animation-delay:5.084s"/><rect class="c e" x="482" y="104" width="13" height="13" rx="2.5" fill="#161b22" style="animation-delay:5.124s"/><rect class="c e" x="482" y="120" width="13" height="13" rx="2.5" fill="#161b22" style="animation-delay:5.164s"/><rect class="c e" x="498" y="24" width="13" height="13" rx="2.5" fill="#161b22" style="animation-delay:4.998s"/><rect class="c e" x="498" y="40" width="13" height="13" rx="2.5" fill="#161b22" style="animation-delay:5.037s"/><rect class="c e" x="498" y="56" width="13" height="13" rx="2.5" fill="#161b22" style="animation-delay:5.077s"/><rect class="c e" x="498" y="72" width="13" height="13" rx="2.5" fill="#161b22" style="animation-delay:5.117s"/><rect class="c e" x="498" y="88" width="13" height="13" rx="2.5" fill="#161b22" style="animation-delay:5.157s"/><rect class="c e" x="498" y="104" width="13" height="13" rx="2.5" fill="#161b22" style="animation-delay:5.197s"/><rect class="c e" x="498" y="120" width="13" height="13" rx="2.5" fill="#161b22" style="animation-delay:5.236s"/><rect class="c e" x="514" y="24" width="13" height="13" rx="2.5" fill="#161b22" style="animation-delay:5.07s"/><rect class="c e" x="514" y="40" width="13" height="13" rx="2.5" fill="#161b22" style="animation-delay:5.11s"/><rect class="c e" x="514" y="56" width="13" height="13" rx="2.5" fill="#161b22" style="animation-delay:5.15s"/><rect class="c e" x="514" y="72" width="13" height="13" rx="2.5" fill="#161b22" style="animation-delay:5.189s"/><rect class="c e" x="514" y="88" width="13" height="13" rx="2.5" fill="#161b22" style="animation-delay:5.229s"/><rect class="c e" x="514" y="104" width="13" height="13" rx="2.5" fill="#161b22" style="animation-delay:5.269s"/><rect class="c e" x="514" y="120" width="13" height="13" rx="2.5" fill="#161b22" style="animation-delay:5.309s"/><rect class="c e" x="530" y="24" width="13" height="13" rx="2.5" fill="#161b22" style="animation-delay:5.142s"/><rect class="c e" x="530" y="40" width="13" height="13" rx="2.5" fill="#161b22" style="animation-delay:5.182s"/><rect class="c e" x="530" y="56" width="13" height="13" rx="2.5" fill="#161b22" style="animation-delay:5.222s"/><rect class="c e" x="530" y="72" width="13" height="13" rx="2.5" fill="#161b22" style="animation-delay:5.262s"/><rect class="c e" x="530" y="88" width="13" height="13" rx="2.5" fill="#161b22" style="animation-delay:5.301s"/><rect class="c e" x="530" y="104" width="13" height="13" rx="2.5" fill="#161b22" style="animation-delay:5.341s"/><rect class="c e" x="530" y="120" width="13" height="13" rx="2.5" fill="#161b22" style="animation-delay:5.381s"/><rect class="c e" x="546" y="24" width="13" height="13" rx="2.5" fill="#161b22" style="animation-delay:5.215s"/><rect class="c e" x="546" y="40" width="13" height="13" rx="2.5" fill="#161b22" style="animation-delay:5.254s"/><rect class="c e" x="546" y="56" width="13" height="13" rx="2.5" fill="#161b22" style="animation-delay:5.294s"/><rect class="c e" x="546" y="72" width="13" height="13" rx="2.5" fill="#161b22" style="animation-delay:5.334s"/><rect class="c e" x="546" y="88" width="13" height="13" rx="2.5" fill="#161b22" style="animation-delay:5.374s"/><rect class="c e" x="546" y="104" width="13" height="13" rx="2.5" fill="#161b22" style="animation-delay:5.414s"/><rect class="c e" x="546" y="120" width="13" height="13" rx="2.5" fill="#161b22" style="animation-delay:5.453s"/><rect class="c e" x="562" y="24" width="13" height="13" rx="2.5" fill="#161b22" style="animation-delay:5.287s"/><rect class="c e" x="562" y="40" width="13" height="13" rx="2.5" fill="#161b22" style="animation-delay:5.327s"/><rect class="c e" x="562" y="56" width="13" height="13" rx="2.5" fill="#161b22" style="animation-delay:5.367s"/><rect class="c e" x="562" y="72" width="13" height="13" rx="2.5" fill="#161b22" style="animation-delay:5.406s"/><rect class="c e" x="562" y="88" width="13" height="13" rx="2.5" fill="#161b22" style="animation-delay:5.446s"/><rect class="c e" x="562" y="104" width="13" height="13" rx="2.5" fill="#161b22" style="animation-delay:5.486s"/><rect class="c e" x="562" y="120" width="13" height="13" rx="2.5" fill="#161b22" style="animation-delay:5.526s"/><rect class="c e" x="578" y="24" width="13" height="13" rx="2.5" fill="#161b22" style="animation-delay:5.359s"/><rect class="c e" x="578" y="40" width="13" height="13" rx="2.5" fill="#161b22" style="animation-delay:5.399s"/><rect class="c e" x="578" y="56" width="13" height="13" rx="2.5" fill="#161b22" style="animation-delay:5.439s"/><rect class="c e" x="578" y="72" width="13" height="13" rx="2.5" fill="#161b22" style="animation-delay:5.479s"/><rect class="c e" x="578" y="88" width="13" height="13" rx="2.5" fill="#161b22" style="animation-delay:5.518s"/><rect class="c e" x="578" y="104" width="13" height="13" rx="2.5" fill="#161b22" style="animation-delay:5.558s"/><rect class="c e" x="578" y="120" width="13" height="13" rx="2.5" fill="#161b22" style="animation-delay:5.598s"/><rect class="c e" x="594" y="24" width="13" height="13" rx="2.5" fill="#161b22" style="animation-delay:5.432s"/><rect class="c e" x="594" y="40" width="13" height="13" rx="2.5" fill="#161b22" style="animation-delay:5.471s"/><rect class="c e" x="594" y="56" width="13" height="13" rx="2.5" fill="#161b22" style="animation-delay:5.511s"/><rect class="c e" x="594" y="72" width="13" height="13" rx="2.5" fill="#161b22" style="animation-delay:5.551s"/><rect class="c e" x="594" y="88" width="13" height="13" rx="2.5" fill="#161b22" style="animation-delay:5.591s"/><rect class="c e" x="594" y="104" width="13" height="13" rx="2.5" fill="#161b22" style="animation-delay:5.631s"/><rect class="c e" x="594" y="120" width="13" height="13" rx="2.5" fill="#161b22" style="animation-delay:5.67s"/><rect class="c e" x="610" y="24" width="13" height="13" rx="2.5" fill="#161b22" style="animation-delay:5.504s"/><rect class="c e" x="610" y="40" width="13" height="13" rx="2.5" fill="#161b22" style="animation-delay:5.544s"/><rect class="c e" x="610" y="56" width="13" height="13" rx="2.5" fill="#161b22" style="animation-delay:5.584s"/><rect class="c e" x="610" y="72" width="13" height="13" rx="2.5" fill="#161b22" style="animation-delay:5.623s"/><rect class="c e" x="610" y="88" width="13" height="13" rx="2.5" fill="#161b22" style="animation-delay:5.663s"/><rect class="c e" x="610" y="104" width="13" height="13" rx="2.5" fill="#161b22" style="animation-delay:5.703s"/><rect class="c e" x="610" y="120" width="13" height="13" rx="2.5" fill="#161b22" style="animation-delay:5.743s"/><rect class="c e" x="626" y="24" width="13" height="13" rx="2.5" fill="#161b22" style="animation-delay:5.576s"/><rect class="c e" x="626" y="40" width="13" height="13" rx="2.5" fill="#161b22" style="animation-delay:5.616s"/><rect class="c e" x="626" y="56" width="13" height="13" rx="2.5" fill="#161b22" style="animation-delay:5.656s"/><rect class="c e" x="626" y="72" width="13" height="13" rx="2.5" fill="#161b22" style="animation-delay:5.696s"/><rect class="c e" x="626" y="88" width="13" height="13" rx="2.5" fill="#161b22" style="animation-delay:5.735s"/><rect class="c e" x="626" y="104" width="13" height="13" rx="2.5" fill="#161b22" style="animation-delay:5.775s"/><rect class="c e" x="626" y="120" width="13" height="13" rx="2.5" fill="#161b22" style="animation-delay:5.815s"/><rect class="c e" x="642" y="24" width="13" height="13" rx="2.5" fill="#161b22" style="animation-delay:5.649s"/><rect class="c e" x="642" y="40" width="13" height="13" rx="2.5" fill="#161b22" style="animation-delay:5.688s"/><rect class="c e" x="642" y="56" width="13" height="13" rx="2.5" fill="#161b22" style="animation-delay:5.728s"/><rect class="c e" x="642" y="72" width="13" height="13" rx="2.5" fill="#161b22" style="animation-delay:5.768s"/><rect class="c e" x="642" y="88" width="13" height="13" rx="2.5" fill="#161b22" style="animation-delay:5.808s"/><rect class="c e" x="642" y="104" width="13" height="13" rx="2.5" fill="#161b22" style="animation-delay:5.848s"/><rect class="c e" x="642" y="120" width="13" height="13" rx="2.5" fill="#161b22" style="animation-delay:5.887s"/><rect class="c e" x="658" y="24" width="13" height="13" rx="2.5" fill="#161b22" style="animation-delay:5.721s"/><rect class="c e" x="658" y="40" width="13" height="13" rx="2.5" fill="#161b22" style="animation-delay:5.761s"/><rect class="c g" x="658" y="56" width="13" height="13" rx="2.5" fill="#0e4429" style="animation-delay:5.801s"/><rect class="c e" x="658" y="72" width="13" height="13" rx="2.5" fill="#161b22" style="animation-delay:5.84s"/><rect class="c e" x="658" y="88" width="13" height="13" rx="2.5" fill="#161b22" style="animation-delay:5.88s"/><rect class="c e" x="658" y="104" width="13" height="13" rx="2.5" fill="#161b22" style="animation-delay:5.92s"/><rect class="c e" x="658" y="120" width="13" height="13" rx="2.5" fill="#161b22" style="animation-delay:5.96s"/><rect class="c e" x="674" y="24" width="13" height="13" rx="2.5" fill="#161b22" style="animation-delay:5.793s"/><rect class="c e" x="674" y="40" width="13" height="13" rx="2.5" fill="#161b22" style="animation-delay:5.833s"/><rect class="c e" x="674" y="56" width="13" height="13" rx="2.5" fill="#161b22" style="animation-delay:5.873s"/><rect class="c e" x="674" y="72" width="13" height="13" rx="2.5" fill="#161b22" style="animation-delay:5.913s"/><rect class="c e" x="674" y="88" width="13" height="13" rx="2.5" fill="#161b22" style="animation-delay:5.952s"/><rect class="c e" x="674" y="104" width="13" height="13" rx="2.5" fill="#161b22" style="animation-delay:5.992s"/><rect class="c e" x="674" y="120" width="13" height="13" rx="2.5" fill="#161b22" style="animation-delay:6.032s"/><rect class="c e" x="690" y="24" width="13" height="13" rx="2.5" fill="#161b22" style="animation-delay:5.866s"/><rect class="c e" x="690" y="40" width="13" height="13" rx="2.5" fill="#161b22" style="animation-delay:5.905s"/><rect class="c e" x="690" y="56" width="13" height="13" rx="2.5" fill="#161b22" style="animation-delay:5.945s"/><rect class="c e" x="690" y="72" width="13" height="13" rx="2.5" fill="#161b22" style="animation-delay:5.985s"/><rect class="c e" x="690" y="88" width="13" height="13" rx="2.5" fill="#161b22" style="animation-delay:6.025s"/><rect class="c e" x="690" y="104" width="13" height="13" rx="2.5" fill="#161b22" style="animation-delay:6.065s"/><rect class="c e" x="690" y="120" width="13" height="13" rx="2.5" fill="#161b22" style="animation-delay:6.104s"/><rect class="c e" x="706" y="24" width="13" height="13" rx="2.5" fill="#161b22" style="animation-delay:5.938s"/><rect class="c e" x="706" y="40" width="13" height="13" rx="2.5" fill="#161b22" style="animation-delay:5.978s"/><rect class="c e" x="706" y="56" width="13" height="13" rx="2.5" fill="#161b22" style="animation-delay:6.018s"/><rect class="c e" x="706" y="72" width="13" height="13" rx="2.5" fill="#161b22" style="animation-delay:6.057s"/><rect class="c e" x="706" y="88" width="13" height="13" rx="2.5" fill="#161b22" style="animation-delay:6.097s"/><rect class="c e" x="706" y="104" width="13" height="13" rx="2.5" fill="#161b22" style="animation-delay:6.137s"/><rect class="c e" x="706" y="120" width="13" height="13" rx="2.5" fill="#161b22" style="animation-delay:6.177s"/><rect class="c e" x="722" y="24" width="13" height="13" rx="2.5" fill="#161b22" style="animation-delay:6.01s"/><rect class="c e" x="722" y="40" width="13" height="13" rx="2.5" fill="#161b22" style="animation-delay:6.05s"/><rect class="c e" x="722" y="56" width="13" height="13" rx="2.5" fill="#161b22" style="animation-delay:6.09s"/><rect class="c e" x="722" y="72" width="13" height="13" rx="2.5" fill="#161b22" style="animation-delay:6.13s"/><rect class="c e" x="722" y="88" width="13" height="13" rx="2.5" fill="#161b22" style="animation-delay:6.169s"/><rect class="c e" x="722" y="104" width="13" height="13" rx="2.5" fill="#161b22" style="animation-delay:6.209s"/><rect class="c e" x="722" y="120" width="13" height="13" rx="2.5" fill="#161b22" style="animation-delay:6.249s"/><rect class="c e" x="738" y="24" width="13" height="13" rx="2.5" fill="#161b22" style="animation-delay:6.083s"/><rect class="c e" x="738" y="40" width="13" height="13" rx="2.5" fill="#161b22" style="animation-delay:6.122s"/><rect class="c e" x="738" y="56" width="13" height="13" rx="2.5" fill="#161b22" style="animation-delay:6.162s"/><rect class="c e" x="738" y="72" width="13" height="13" rx="2.5" fill="#161b22" style="animation-delay:6.202s"/><rect class="c e" x="738" y="88" width="13" height="13" rx="2.5" fill="#161b22" style="animation-delay:6.242s"/><rect class="c e" x="738" y="104" width="13" height="13" rx="2.5" fill="#161b22" style="animation-delay:6.282s"/><rect class="c e" x="738" y="120" width="13" height="13" rx="2.5" fill="#161b22" style="animation-delay:6.321s"/><rect class="c e" x="754" y="24" width="13" height="13" rx="2.5" fill="#161b22" style="animation-delay:6.155s"/><rect class="c e" x="754" y="40" width="13" height="13" rx="2.5" fill="#161b22" style="animation-delay:6.195s"/><rect class="c e" x="754" y="56" width="13" height="13" rx="2.5" fill="#161b22" style="animation-delay:6.235s"/><rect class="c e" x="754" y="72" width="13" height="13" rx="2.5" fill="#161b22" style="animation-delay:6.274s"/><rect class="c e" x="754" y="88" width="13" height="13" rx="2.5" fill="#161b22" style="animation-delay:6.314s"/><rect class="c e" x="754" y="104" width="13" height="13" rx="2.5" fill="#161b22" style="animation-delay:6.354s"/><rect class="c e" x="754" y="120" width="13" height="13" rx="2.5" fill="#161b22" style="animation-delay:6.394s"/><rect class="c e" x="770" y="24" width="13" height="13" rx="2.5" fill="#161b22" style="animation-delay:6.227s"/><rect class="c e" x="770" y="40" width="13" height="13" rx="2.5" fill="#161b22" style="animation-delay:6.267s"/><rect class="c e" x="770" y="56" width="13" height="13" rx="2.5" fill="#161b22" style="animation-delay:6.307s"/><rect class="c e" x="770" y="72" width="13" height="13" rx="2.5" fill="#161b22" style="animation-delay:6.347s"/><rect class="c e" x="770" y="88" width="13" height="13" rx="2.5" fill="#161b22" style="animation-delay:6.386s"/><rect class="c e" x="770" y="104" width="13" height="13" rx="2.5" fill="#161b22" style="animation-delay:6.426s"/><rect class="c e" x="770" y="120" width="13" height="13" rx="2.5" fill="#161b22" style="animation-delay:6.466s"/><rect class="c e" x="786" y="24" width="13" height="13" rx="2.5" fill="#161b22" style="animation-delay:6.3s"/><rect class="c e" x="786" y="40" width="13" height="13" rx="2.5" fill="#161b22" style="animation-delay:6.339s"/><rect class="c e" x="786" y="56" width="13" height="13" rx="2.5" fill="#161b22" style="animation-delay:6.379s"/><rect class="c e" x="786" y="72" width="13" height="13" rx="2.5" fill="#161b22" style="animation-delay:6.419s"/><rect class="c e" x="786" y="88" width="13" height="13" rx="2.5" fill="#161b22" style="animation-delay:6.459s"/><rect class="c e" x="786" y="104" width="13" height="13" rx="2.5" fill="#161b22" style="animation-delay:6.499s"/><rect class="c e" x="786" y="120" width="13" height="13" rx="2.5" fill="#161b22" style="animation-delay:6.538s"/><rect class="c e" x="802" y="24" width="13" height="13" rx="2.5" fill="#161b22" style="animation-delay:6.372s"/><rect class="c e" x="802" y="40" width="13" height="13" rx="2.5" fill="#161b22" style="animation-delay:6.412s"/><rect class="c e" x="802" y="56" width="13" height="13" rx="2.5" fill="#161b22" style="animation-delay:6.452s"/><rect class="c e" x="802" y="72" width="13" height="13" rx="2.5" fill="#161b22" style="animation-delay:6.491s"/><rect class="c e" x="802" y="88" width="13" height="13" rx="2.5" fill="#161b22" style="animation-delay:6.531s"/><rect class="c e" x="802" y="104" width="13" height="13" rx="2.5" fill="#161b22" style="animation-delay:6.571s"/><rect class="c e" x="802" y="120" width="13" height="13" rx="2.5" fill="#161b22" style="animation-delay:6.611s"/><rect class="c e" x="818" y="24" width="13" height="13" rx="2.5" fill="#161b22" style="animation-delay:6.444s"/><rect class="c g" x="818" y="40" width="13" height="13" rx="2.5" fill="#0e4429" style="animation-delay:6.484s"/><rect class="c e" x="818" y="56" width="13" height="13" rx="2.5" fill="#161b22" style="animation-delay:6.524s"/><rect class="c e" x="818" y="72" width="13" height="13" rx="2.5" fill="#161b22" style="animation-delay:6.564s"/><rect class="c e" x="818" y="88" width="13" height="13" rx="2.5" fill="#161b22" style="animation-delay:6.603s"/><rect class="c e" x="818" y="104" width="13" height="13" rx="2.5" fill="#161b22" style="animation-delay:6.643s"/><rect class="c e" x="818" y="120" width="13" height="13" rx="2.5" fill="#161b22" style="animation-delay:6.683s"/><rect class="c e" x="834" y="24" width="13" height="13" rx="2.5" fill="#161b22" style="animation-delay:6.517s"/><rect class="c g" x="834" y="40" width="13" height="13" rx="2.5" fill="#0e4429" style="animation-delay:6.556s"/><rect class="c e" x="834" y="56" width="13" height="13" rx="2.5" fill="#161b22" style="animation-delay:6.596s"/><rect class="c e" x="834" y="72" width="13" height="13" rx="2.5" fill="#161b22" style="animation-delay:6.636s"/><rect class="c e" x="834" y="88" width="13" height="13" rx="2.5" fill="#161b22" style="animation-delay:6.676s"/><rect class="c e" x="834" y="104" width="13" height="13" rx="2.5" fill="#161b22" style="animation-delay:6.716s"/><rect class="c e" x="834" y="120" width="13" height="13" rx="2.5" fill="#161b22" style="animation-delay:6.755s"/><rect class="c e" x="850" y="24" width="13" height="13" rx="2.5" fill="#161b22" style="animation-delay:6.589s"/><rect class="c g" x="850" y="40" width="13" height="13" rx="2.5" fill="#0e4429" style="animation-delay:6.629s"/><rect class="c e" x="850" y="56" width="13" height="13" rx="2.5" fill="#161b22" style="animation-delay:6.669s"/><rect class="c e" x="850" y="72" width="13" height="13" rx="2.5" fill="#161b22" style="animation-delay:6.708s"/><rect class="c e" x="850" y="88" width="13" height="13" rx="2.5" fill="#161b22" style="animation-delay:6.748s"/><rect class="c e" x="850" y="104" width="13" height="13" rx="2.5" fill="#161b22" style="animation-delay:6.788s"/><rect class="c e" x="850" y="120" width="13" height="13" rx="2.5" fill="#161b22" style="animation-delay:6.828s"/><rect class="c g" x="866" y="24" width="13" height="13" rx="2.5" fill="#006d32" style="animation-delay:6.661s"/>
<text class="total" x="34" y="152">500 contributions in the last year</text>
</svg>