<svg xmlns="http://www.w3.org/2000/svg" width="888" height="158" viewBox="0 0 888 158" font-family="-apple-system,BlinkMacSystemFont,Segoe UI,Helvetica,Arial,sans-serif">
<style>
  text.lbl { fill:#7d8590; font-size:12px; font-weight:600; }
  text.total { fill:#e6edf3; font-size:14px; font-weight:700; }
  .c { transform-box:fill-box; transform-origin:center; opacity:0; animation:pop 0.7s ease-out both; }
  .g { animation:pop 0.7s ease-out both, flash 0.8999999999999999s ease-out both; }
  
  /* Reset animation on hover so it's always readable */
  svg:hover .c { animation: none !important; opacity: 1 !important; }

  @keyframes pop { 
    0%{opacity:0;transform:scale(.3)} 
    60%{opacity:1;transform:scale(1.05)} 
    100%{opacity:1;transform:scale(1)} 
  }
  @keyframes flash { 
    0%{filter:brightness(2.2)} 
    50%{filter:brightness(2.2)} 
    100%{filter:brightness(1)} 
  }
</style>
<rect width="888" height="158" fill="none"/>
<text class="lbl" x="34" y="16">Jul</text><text class="lbl" x="66" y="16">Aug</text><text class="lbl" x="146" y="16">Sep</text><text class="lbl" x="210" y="16">Oct</text><text class="lbl" x="274" y="16">Nov</text><text class="lbl" x="354" y="16">Dec</text><text class="lbl" x="418" y="16">Jan</text><text class="lbl" x="482" y="16">Feb</text><text class="lbl" x="546" y="16">Mar</text><text class="lbl" x="626" y="16">Apr</text><text class="lbl" x="690" y="16">May</text><text class="lbl" x="770" y="16">Jun</text><text class="lbl" x="834" y="16">Jul</text><text class="lbl" x="2" y="51">Mon</text><text class="lbl" x="2" y="83">Wed</text><text class="lbl" x="2" y="115">Fri</text>
<rect class="c e" x="34" y="24" width="13" height="13" rx="2.5" fill="#161b22" style="animation-delay:1.2s"/><rect class="c e" x="34" y="40" width="13" height="13" rx="2.5" fill="#161b22" style="animation-delay:1.24s"/><rect class="c e" x="34" y="56" width="13" height="13" rx="2.5" fill="#161b22" style="animation-delay:1.28s"/><rect class="c e" x="34" y="72" width="13" height="13" rx="2.5" fill="#161b22" style="animation-delay:1.319s"/><rect class="c e" x="34" y="88" width="13" height="13" rx="2.5" fill="#161b22" style="animation-delay:1.359s"/><rect class="c e" x="34" y="104" width="13" height="13" rx="2.5" fill="#161b22" style="animation-delay:1.399s"/><rect class="c e" x="34" y="120" width="13" height="13" rx="2.5" fill="#161b22" style="animation-delay:1.439s"/><rect class="c e" x="50" y="24" width="13" height="13" rx="2.5" fill="#161b22" style="animation-delay:1.272s"/><rect class="c e" x="50" y="40" width="13" height="13" rx="2.5" fill="#161b22" style="animation-delay:1.312s"/><rect class="c e" x="50" y="56" width="13" height="13" rx="2.5" fill="#161b22" style="animation-delay:1.352s"/><rect class="c e" x="50" y="72" width="13" height="13" rx="2.5" fill="#161b22" style="animation-delay:1.392s"/><rect class="c e" x="50" y="88" width="13" height="13" rx="2.5" fill="#161b22" style="animation-delay:1.431s"/><rect class="c e" x="50" y="104" width="13" height="13" rx="2.5" fill="#161b22" style="animation-delay:1.471s"/><rect class="c g" x="50" y="120" width="13" height="13" rx="2.5" fill="#006d32" style="animation-delay:1.511s"/><rect class="c g" x="66" y="24" width="13" height="13" rx="2.5" fill="#006d32" style="animation-delay:1.345s"/><rect class="c g" x="66" y="40" width="13" height="13" rx="2.5" fill="#0e4429" style="animation-delay:1.384s"/><rect class="c g" x="66" y="56" width="13" height="13" rx="2.5" fill="#39d353" style="animation-delay:1.424s"/><rect class="c g" x="66" y="72" width="13" height="13" rx="2.5" fill="#26a641" style="animation-delay:1.464s"/><rect class="c g" x="66" y="88" width="13" height="13" rx="2.5" fill="#39d353" style="animation-delay:1.504s"/><rect class="c g" x="66" y="104" width="13" height="13" rx="2.5" fill="#39d353" style="animation-delay:1.544s"/><rect class="c g" x="66" y="120" width="13" height="13" rx="2.5" fill="#39d353" style="animation-delay:1.583s"/><rect class="c e" x="82" y="24" width="13" height="13" rx="2.5" fill="#161b22" style="animation-delay:1.417s"/><rect class="c e" x="82" y="40" width="13" height="13" rx="2.5" fill="#161b22" style="animation-delay:1.457s"/><rect class="c e" x="82" y="56" width="13" height="13" rx="2.5" fill="#161b22" style="animation-delay:1.497s"/><rect class="c g" x="82" y="72" width="13" height="13" rx="2.5" fill="#39d353" style="animation-delay:1.536s"/><rect class="c g" x="82" y="88" width="13" height="13" rx="2.5" fill="#0e4429" style="animation-delay:1.576s"/><rect class="c e" x="82" y="104" width="13" height="13" rx="2.5" fill="#161b22" style="animation-delay:1.616s"/><rect class="c e" x="82" y="120" width="13" height="13" rx="2.5" fill="#161b22" style="animation-delay:1.656s"/><rect class="c e" x="98" y="24" width="13" height="13" rx="2.5" fill="#161b22" style="animation-delay:1.489s"/><rect class="c e" x="98" y="40" width="13" height="13" rx="2.5" fill="#161b22" style="animation-delay:1.529s"/><rect class="c e" x="98" y="56" width="13" height="13" rx="2.5" fill="#161b22" style="animation-delay:1.569s"/><rect class="c e" x="98" y="72" width="13" height="13" rx="2.5" fill="#161b22" style="animation-delay:1.609s"/><rect class="c e" x="98" y="88" width="13" height="13" rx="2.5" fill="#161b22" style="animation-delay:1.648s"/><rect class="c g" x="98" y="104" width="13" height="13" rx="2.5" fill="#39d353" style="animation-delay:1.688s"/><rect class="c e" x="98" y="120" width="13" height="13" rx="2.5" fill="#161b22" style="animation-delay:1.728s"/><rect class="c e" x="114" y="24" width="13" height="13" rx="2.5" fill="#161b22" style="animation-delay:1.562s"/><rect class="c e" x="114" y="40" width="13" height="13" rx="2.5" fill="#161b22" style="animation-delay:1.601s"/><rect class="c e" x="114" y="56" width="13" height="13" rx="2.5" fill="#161b22" style="animation-delay:1.641s"/><rect class="c e" x="114" y="72" width="13" height="13" rx="2.5" fill="#161b22" style="animation-delay:1.681s"/><rect class="c e" x="114" y="88" width="13" height="13" rx="2.5" fill="#161b22" style="animation-delay:1.721s"/><rect class="c e" x="114" y="104" width="13" height="13" rx="2.5" fill="#161b22" style="animation-delay:1.761s"/><rect class="c e" x="114" y="120" width="13" height="13" rx="2.5" fill="#161b22" style="animation-delay:1.8s"/><rect class="c g" x="130" y="24" width="13" height="13" rx="2.5" fill="#0e4429" style="animation-delay:1.634s"/><rect class="c g" x="130" y="40" width="13" height="13" rx="2.5" fill="#0e4429" style="animation-delay:1.674s"/><rect class="c e" x="130" y="56" width="13" height="13" rx="2.5" fill="#161b22" style="animation-delay:1.714s"/><rect class="c e" x="130" y="72" width="13" height="13" rx="2.5" fill="#161b22" style="animation-delay:1.753s"/><rect class="c g" x="130" y="88" width="13" height="13" rx="2.5" fill="#0e4429" style="animation-delay:1.793s"/><rect class="c g" x="130" y="104" width="13" height="13" rx="2.5" fill="#0e4429" style="animation-delay:1.833s"/><rect class="c e" x="130" y="120" width="13" height="13" rx="2.5" fill="#161b22" style="animation-delay:1.873s"/><rect class="c e" x="146" y="24" width="13" height="13" rx="2.5" fill="#161b22" style="animation-delay:1.706s"/><rect class="c e" x="146" y="40" width="13" height="13" rx="2.5" fill="#161b22" style="animation-delay:1.746s"/><rect class="c e" x="146" y="56" width="13" height="13" rx="2.5" fill="#161b22" style="animation-delay:1.786s"/><rect class="c e" x="146" y="72" width="13" height="13" rx="2.5" fill="#161b22" style="animation-delay:1.826s"/><rect class="c e" x="146" y="88" width="13" height="13" rx="2.5" fill="#161b22" style="animation-delay:1.865s"/><rect class="c g" x="146" y="104" width="13" height="13" rx="2.5" fill="#0e4429" style="animation-delay:1.905s"/><rect class="c g" x="146" y="120" width="13" height="13" rx="2.5" fill="#0e4429" style="animation-delay:1.945s"/><rect class="c e" x="162" y="24" width="13" height="13" rx="2.5" fill="#161b22" style="animation-delay:1.779s"/><rect class="c e" x="162" y="40" width="13" height="13" rx="2.5" fill="#161b22" style="animation-delay:1.818s"/><rect class="c e" x="162" y="56" width="13" height="13" rx="2.5" fill="#161b22" style="animation-delay:1.858s"/><rect class="c e" x="162" y="72" width="13" height="13" rx="2.5" fill="#161b22" style="animation-delay:1.898s"/><rect class="c e" x="162" y="88" width="13" height="13" rx="2.5" fill="#161b22" style="animation-delay:1.938s"/><rect class="c e" x="162" y="104" width="13" height="13" rx="2.5" fill="#161b22" style="animation-delay:1.978s"/><rect class="c e" x="162" y="120" width="13" height="13" rx="2.5" fill="#161b22" style="animation-delay:2.017s"/><rect class="c g" x="178" y="24" width="13" height="13" rx="2.5" fill="#0e4429" style="animation-delay:1.851s"/><rect class="c e" x="178" y="40" width="13" height="13" rx="2.5" fill="#161b22" style="animation-delay:1.891s"/><rect class="c e" x="178" y="56" width="13" height="13" rx="2.5" fill="#161b22" style="animation-delay:1.931s"/><rect class="c e" x="178" y="72" width="13" height="13" rx="2.5" fill="#161b22" style="animation-delay:1.97s"/><rect class="c e" x="178" y="88" width="13" height="13" rx="2.5" fill="#161b22" style="animation-delay:2.01s"/><rect class="c e" x="178" y="104" width="13" height="13" rx="2.5" fill="#161b22" style="animation-delay:2.05s"/><rect class="c e" x="178" y="120" width="13" height="13" rx="2.5" fill="#161b22" style="animation-delay:2.09s"/><rect class="c e" x="194" y="24" width="13" height="13" rx="2.5" fill="#161b22" style="animation-delay:1.923s"/><rect class="c e" x="194" y="40" width="13" height="13" rx="2.5" fill="#161b22" style="animation-delay:1.963s"/><rect class="c e" x="194" y="56" width="13" height="13" rx="2.5" fill="#161b22" style="animation-delay:2.003s"/><rect class="c e" x="194" y="72" width="13" height="13" rx="2.5" fill="#161b22" style="animation-delay:2.043s"/><rect class="c e" x="194" y="88" width="13" height="13" rx="2.5" fill="#161b22" style="animation-delay:2.082s"/><rect class="c e" x="194" y="104" width="13" height="13" rx="2.5" fill="#161b22" style="animation-delay:2.122s"/><rect class="c e" x="194" y="120" width="13" height="13" rx="2.5" fill="#161b22" style="animation-delay:2.162s"/><rect class="c e" x="210" y="24" width="13" height="13" rx="2.5" fill="#161b22" style="animation-delay:1.996s"/><rect class="c e" x="210" y="40" width="13" height="13" rx="2.5" fill="#161b22" style="animation-delay:2.035s"/><rect class="c e" x="210" y="56" width="13" height="13" rx="2.5" fill="#161b22" style="animation-delay:2.075s"/><rect class="c e" x="210" y="72" width="13" height="13" rx="2.5" fill="#161b22" style="animation-delay:2.115s"/><rect class="c e" x="210" y="88" width="13" height="13" rx="2.5" fill="#161b22" style="animation-delay:2.155s"/><rect class="c e" x="210" y="104" width="13" height="13" rx="2.5" fill="#161b22" style="animation-delay:2.195s"/><rect class="c e" x="210" y="120" width="13" height="13" rx="2.5" fill="#161b22" style="animation-delay:2.234s"/><rect class="c e" x="226" y="24" width="13" height="13" rx="2.5" fill="#161b22" style="animation-delay:2.068s"/><rect class="c e" x="226" y="40" width="13" height="13" rx="2.5" fill="#161b22" style="animation-delay:2.108s"/><rect class="c e" x="226" y="56" width="13" height="13" rx="2.5" fill="#161b22" style="animation-delay:2.148s"/><rect class="c e" x="226" y="72" width="13" height="13" rx="2.5" fill="#161b22" style="animation-delay:2.187s"/><rect class="c e" x="226" y="88" width="13" height="13" rx="2.5" fill="#161b22" style="animation-delay:2.227s"/><rect class="c e" x="226" y="104" width="13" height="13" rx="2.5" fill="#161b22" style="animation-delay:2.267s"/><rect class="c e" x="226" y="120" width="13" height="13" rx="2.5" fill="#161b22" style="animation-delay:2.307s"/><rect class="c e" x="242" y="24" width="13" height="13" rx="2.5" fill="#161b22" style="animation-delay:2.14s"/><rect class="c e" x="242" y="40" width="13" height="13" rx="2.5" fill="#161b22" style="animation-delay:2.18s"/><rect class="c e" x="242" y="56" width="13" height="13" rx="2.5" fill="#161b22" style="animation-delay:2.22s"/><rect class="c e" x="242" y="72" width="13" height="13" rx="2.5" fill="#161b22" style="animation-delay:2.26s"/><rect class="c e" x="242" y="88" width="13" height="13" rx="2.5" fill="#161b22" style="animation-delay:2.299s"/><rect class="c e" x="242" y="104" width="13" height="13" rx="2.5" fill="#161b22" style="animation-delay:2.339s"/><rect class="c e" x="242" y="120" width="13" height="13" rx="2.5" fill="#161b22" style="animation-delay:2.379s"/><rect class="c e" x="258" y="24" width="13" height="13" rx="2.5" fill="#161b22" style="animation-delay:2.213s"/><rect class="c e" x="258" y="40" width="13" height="13" rx="2.5" fill="#161b22" style="animation-delay:2.252s"/><rect class="c g" x="258" y="56" width="13" height="13" rx="2.5" fill="#39d353" style="animation-delay:2.292s"/><rect class="c e" x="258" y="72" width="13" height="13" rx="2.5" fill="#161b22" style="animation-delay:2.332s"/><rect class="c e" x="258" y="88" width="13" height="13" rx="2.5" fill="#161b22" style="animation-delay:2.372s"/><rect class="c g" x="258" y="104" width="13" height="13" rx="2.5" fill="#39d353" style="animation-delay:2.412s"/><rect class="c g" x="258" y="120" width="13" height="13" rx="2.5" fill="#0e4429" style="animation-delay:2.451s"/><rect class="c e" x="274" y="24" width="13" height="13" rx="2.5" fill="#161b22" style="animation-delay:2.285s"/><rect class="c e" x="274" y="40" width="13" height="13" rx="2.5" fill="#161b22" style="animation-delay:2.325s"/><rect class="c e" x="274" y="56" width="13" height="13" rx="2.5" fill="#161b22" style="animation-delay:2.365s"/><rect class="c e" x="274" y="72" width="13" height="13" rx="2.5" fill="#161b22" style="animation-delay:2.404s"/><rect class="c g" x="274" y="88" width="13" height="13" rx="2.5" fill="#0e4429" style="animation-delay:2.444s"/><rect class="c g" x="274" y="104" width="13" height="13" rx="2.5" fill="#0e4429" style="animation-delay:2.484s"/><rect class="c e" x="274" y="120" width="13" height="13" rx="2.5" fill="#161b22" style="animation-delay:2.524s"/><rect class="c e" x="290" y="24" width="13" height="13" rx="2.5" fill="#161b22" style="animation-delay:2.357s"/><rect class="c e" x="290" y="40" width="13" height="13" rx="2.5" fill="#161b22" style="animation-delay:2.397s"/><rect class="c e" x="290" y="56" width="13" height="13" rx="2.5" fill="#161b22" style="animation-delay:2.437s"/><rect class="c g" x="290" y="72" width="13" height="13" rx="2.5" fill="#006d32" style="animation-delay:2.477s"/><rect class="c e" x="290" y="88" width="13" height="13" rx="2.5" fill="#161b22" style="animation-delay:2.516s"/><rect class="c e" x="290" y="104" width="13" height="13" rx="2.5" fill="#161b22" style="animation-delay:2.556s"/><rect class="c e" x="290" y="120" width="13" height="13" rx="2.5" fill="#161b22" style="animation-delay:2.596s"/><rect class="c e" x="306" y="24" width="13" height="13" rx="2.5" fill="#161b22" style="animation-delay:2.43s"/><rect class="c e" x="306" y="40" width="13" height="13" rx="2.5" fill="#161b22" style="animation-delay:2.469s"/><rect class="c e" x="306" y="56" width="13" height="13" rx="2.5" fill="#161b22" style="animation-delay:2.509s"/><rect class="c e" x="306" y="72" width="13" height="13" rx="2.5" fill="#161b22" style="animation-delay:2.549s"/><rect class="c e" x="306" y="88" width="13" height="13" rx="2.5" fill="#161b22" style="animation-delay:2.589s"/><rect class="c e" x="306" y="104" width="13" height="13" rx="2.5" fill="#161b22" style="animation-delay:2.629s"/><rect class="c e" x="306" y="120" width="13" height="13" rx="2.5" fill="#161b22" style="animation-delay:2.668s"/><rect class="c e" x="322" y="24" width="13" height="13" rx="2.5" fill="#161b22" style="animation-delay:2.502s"/><rect class="c e" x="322" y="40" width="13" height="13" rx="2.5" fill="#161b22" style="animation-delay:2.542s"/><rect class="c e" x="322" y="56" width="13" height="13" rx="2.5" fill="#161b22" style="animation-delay:2.582s"/><rect class="c e" x="322" y="72" width="13" height="13" rx="2.5" fill="#161b22" style="animation-delay:2.621s"/><rect class="c e" x="322" y="88" width="13" height="13" rx="2.5" fill="#161b22" style="animation-delay:2.661s"/><rect class="c e" x="322" y="104" width="13" height="13" rx="2.5" fill="#161b22" style="animation-delay:2.701s"/><rect class="c e" x="322" y="120" width="13" height="13" rx="2.5" fill="#161b22" style="animation-delay:2.741s"/><rect class="c e" x="338" y="24" width="13" height="13" rx="2.5" fill="#161b22" style="animation-delay:2.574s"/><rect class="c e" x="338" y="40" width="13" height="13" rx="2.5" fill="#161b22" style="animation-delay:2.614s"/><rect class="c e" x="338" y="56" width="13" height="13" rx="2.5" fill="#161b22" style="animation-delay:2.654s"/><rect class="c e" x="338" y="72" width="13" height="13" rx="2.5" fill="#161b22" style="animation-delay:2.694s"/><rect class="c e" x="338" y="88" width="13" height="13" rx="2.5" fill="#161b22" style="animation-delay:2.733s"/><rect class="c e" x="338" y="104" width="13" height="13" rx="2.5" fill="#161b22" style="animation-delay:2.773s"/><rect class="c e" x="338" y="120" width="13" height="13" rx="2.5" fill="#161b22" style="animation-delay:2.813s"/><rect class="c e" x="354" y="24" width="13" height="13" rx="2.5" fill="#161b22" style="animation-delay:2.647s"/><rect class="c e" x="354" y="40" width="13" height="13" rx="2.5" fill="#161b22" style="animation-delay:2.686s"/><rect class="c e" x="354" y="56" width="13" height="13" rx="2.5" fill="#161b22" style="animation-delay:2.726s"/><rect class="c e" x="354" y="72" width="13" height="13" rx="2.5" fill="#161b22" style="animation-delay:2.766s"/><rect class="c e" x="354" y="88" width="13" height="13" rx="2.5" fill="#161b22" style="animation-delay:2.806s"/><rect class="c e" x="354" y="104" width="13" height="13" rx="2.5" fill="#161b22" style="animation-delay:2.846s"/><rect class="c e" x="354" y="120" width="13" height="13" rx="2.5" fill="#161b22" style="animation-delay:2.885s"/><rect class="c e" x="370" y="24" width="13" height="13" rx="2.5" fill="#161b22" style="animation-delay:2.719s"/><rect class="c e" x="370" y="40" width="13" height="13" rx="2.5" fill="#161b22" style="animation-delay:2.759s"/><rect class="c e" x="370" y="56" width="13" height="13" rx="2.5" fill="#161b22" style="animation-delay:2.799s"/><rect class="c e" x="370" y="72" width="13" height="13" rx="2.5" fill="#161b22" style="animation-delay:2.838s"/><rect class="c e" x="370" y="88" width="13" height="13" rx="2.5" fill="#161b22" style="animation-delay:2.878s"/><rect class="c e" x="370" y="104" width="13" height="13" rx="2.5" fill="#161b22" style="animation-delay:2.918s"/><rect class="c e" x="370" y="120" width="13" height="13" rx="2.5" fill="#161b22" style="animation-delay:2.958s"/><rect class="c e" x="386" y="24" width="13" height="13" rx="2.5" fill="#161b22" style="animation-delay:2.791s"/><rect class="c e" x="386" y="40" width="13" height="13" rx="2.5" fill="#161b22" style="animation-delay:2.831s"/><rect class="c e" x="386" y="56" width="13" height="13" rx="2.5" fill="#161b22" style="animation-delay:2.871s"/><rect class="c e" x="386" y="72" width="13" height="13" rx="2.5" fill="#161b22" style="animation-delay:2.911s"/><rect class="c e" x="386" y="88" width="13" height="13" rx="2.5" fill="#161b22" style="animation-delay:2.95s"/><rect class="c e" x="386" y="104" width="13" height="13" rx="2.5" fill="#161b22" style="animation-delay:2.99s"/><rect class="c e" x="386" y="120" width="13" height="13" rx="2.5" fill="#161b22" style="animation-delay:3.03s"/><rect class="c e" x="402" y="24" width="13" height="13" rx="2.5" fill="#161b22" style="animation-delay:2.864s"/><rect class="c e" x="402" y="40" width="13" height="13" rx="2.5" fill="#161b22" style="animation-delay:2.903s"/><rect class="c e" x="402" y="56" width="13" height="13" rx="2.5" fill="#161b22" style="animation-delay:2.943s"/><rect class="c e" x="402" y="72" width="13" height="13" rx="2.5" fill="#161b22" style="animation-delay:2.983s"/><rect class="c e" x="402" y="88" width="13" height="13" rx="2.5" fill="#161b22" style="animation-delay:3.023s"/><rect class="c e" x="402" y="104" width="13" height="13" rx="2.5" fill="#161b22" style="animation-delay:3.063s"/><rect class="c e" x="402" y="120" width="13" height="13" rx="2.5" fill="#161b22" style="animation-delay:3.102s"/><rect class="c e" x="418" y="24" width="13" height="13" rx="2.5" fill="#161b22" style="animation-delay:2.936s"/><rect class="c e" x="418" y="40" width="13" height="13" rx="2.5" fill="#161b22" style="animation-delay:2.976s"/><rect class="c e" x="418" y="56" width="13" height="13" rx="2.5" fill="#161b22" style="animation-delay:3.016s"/><rect class="c e" x="418" y="72" width="13" height="13" rx="2.5" fill="#161b22" style="animation-delay:3.055s"/><rect class="c e" x="418" y="88" width="13" height="13" rx="2.5" fill="#161b22" style="animation-delay:3.095s"/><rect class="c e" x="418" y="104" width="13" height="13" rx="2.5" fill="#161b22" style="animation-delay:3.135s"/><rect class="c e" x="418" y="120" width="13" height="13" rx="2.5" fill="#161b22" style="animation-delay:3.175s"/><rect class="c e" x="434" y="24" width="13" height="13" rx="2.5" fill="#161b22" style="animation-delay:3.008s"/><rect class="c e" x="434" y="40" width="13" height="13" rx="2.5" fill="#161b22" style="animation-delay:3.048s"/><rect class="c e" x="434" y="56" width="13" height="13" rx="2.5" fill="#161b22" style="animation-delay:3.088s"/><rect class="c e" x="434" y="72" width="13" height="13" rx="2.5" fill="#161b22" style="animation-delay:3.128s"/><rect class="c e" x="434" y="88" width="13" height="13" rx="2.5" fill="#161b22" style="animation-delay:3.167s"/><rect class="c e" x="434" y="104" width="13" height="13" rx="2.5" fill="#161b22" style="animation-delay:3.207s"/><rect class="c e" x="434" y="120" width="13" height="13" rx="2.5" fill="#161b22" style="animation-delay:3.247s"/><rect class="c e" x="450" y="24" width="13" height="13" rx="2.5" fill="#161b22" style="animation-delay:3.081s"/><rect class="c e" x="450" y="40" width="13" height="13" rx="2.5" fill="#161b22" style="animation-delay:3.12s"/><rect class="c e" x="450" y="56" width="13" height="13" rx="2.5" fill="#161b22" style="animation-delay:3.16s"/><rect class="c e" x="450" y="72" width="13" height="13" rx="2.5" fill="#161b22" style="animation-delay:3.2s"/><rect class="c e" x="450" y="88" width="13" height="13" rx="2.5" fill="#161b22" style="animation-delay:3.24s"/><rect class="c e" x="450" y="104" width="13" height="13" rx="2.5" fill="#161b22" style="animation-delay:3.28s"/><rect class="c e" x="450" y="120" width="13" height="13" rx="2.5" fill="#161b22" style="animation-delay:3.319s"/><rect class="c e" x="466" y="24" width="13" height="13" rx="2.5" fill="#161b22" style="animation-delay:3.153s"/><rect class="c e" x="466" y="40" width="13" height="13" rx="2.5" fill="#161b22" style="animation-delay:3.193s"/><rect class="c e" x="466" y="56" width="13" height="13" rx="2.5" fill="#161b22" style="animation-delay:3.233s"/><rect class="c e" x="466" y="72" width="13" height="13" rx="2.5" fill="#161b22" style="animation-delay:3.272s"/><rect class="c e" x="466" y="88" width="13" height="13" rx="2.5" fill="#161b22" style="animation-delay:3.312s"/><rect class="c e" x="466" y="104" width="13" height="13" rx="2.5" fill="#161b22" style="animation-delay:3.352s"/><rect class="c e" x="466" y="120" width="13" height="13" rx="2.5" fill="#161b22" style="animation-delay:3.392s"/><rect class="c e" x="482" y="24" width="13" height="13" rx="2.5" fill="#161b22" style="animation-delay:3.225s"/><rect class="c e" x="482" y="40" width="13" height="13" rx="2.5" fill="#161b22" style="animation-delay:3.265s"/><rect class="c e" x="482" y="56" width="13" height="13" rx="2.5" fill="#161b22" style="animation-delay:3.305s"/><rect class="c e" x="482" y="72" width="13" height="13" rx="2.5" fill="#161b22" style="animation-delay:3.345s"/><rect class="c e" x="482" y="88" width="13" height="13" rx="2.5" fill="#161b22" style="animation-delay:3.384s"/><rect class="c e" x="482" y="104" width="13" height="13" rx="2.5" fill="#161b22" style="animation-delay:3.424s"/><rect class="c e" x="482" y="120" width="13" height="13" rx="2.5" fill="#161b22" style="animation-delay:3.464s"/><rect class="c e" x="498" y="24" width="13" height="13" rx="2.5" fill="#161b22" style="animation-delay:3.298s"/><rect class="c e" x="498" y="40" width="13" height="13" rx="2.5" fill="#161b22" style="animation-delay:3.337s"/><rect class="c e" x="498" y="56" width="13" height="13" rx="2.5" fill="#161b22" style="animation-delay:3.377s"/><rect class="c e" x="498" y="72" width="13" height="13" rx="2.5" fill="#161b22" style="animation-delay:3.417s"/><rect class="c e" x="498" y="88" width="13" height="13" rx="2.5" fill="#161b22" style="animation-delay:3.457s"/><rect class="c e" x="498" y="104" width="13" height="13" rx="2.5" fill="#161b22" style="animation-delay:3.497s"/><rect class="c e" x="498" y="120" width="13" height="13" rx="2.5" fill="#161b22" style="animation-delay:3.536s"/><rect class="c e" x="514" y="24" width="13" height="13" rx="2.5" fill="#161b22" style="animation-delay:3.37s"/><rect class="c e" x="514" y="40" width="13" height="13" rx="2.5" fill="#161b22" style="animation-delay:3.41s"/><rect class="c e" x="514" y="56" width="13" height="13" rx="2.5" fill="#161b22" style="animation-delay:3.45s"/><rect class="c e" x="514" y="72" width="13" height="13" rx="2.5" fill="#161b22" style="animation-delay:3.489s"/><rect class="c e" x="514" y="88" width="13" height="13" rx="2.5" fill="#161b22" style="animation-delay:3.529s"/><rect class="c e" x="514" y="104" width="13" height="13" rx="2.5" fill="#161b22" style="animation-delay:3.569s"/><rect class="c e" x="514" y="120" width="13" height="13" rx="2.5" fill="#161b22" style="animation-delay:3.609s"/><rect class="c e" x="530" y="24" width="13" height="13" rx="2.5" fill="#161b22" style="animation-delay:3.442s"/><rect class="c e" x="530" y="40" width="13" height="13" rx="2.5" fill="#161b22" style="animation-delay:3.482s"/><rect class="c e" x="530" y="56" width="13" height="13" rx="2.5" fill="#161b22" style="animation-delay:3.522s"/><rect class="c e" x="530" y="72" width="13" height="13" rx="2.5" fill="#161b22" style="animation-delay:3.562s"/><rect class="c e" x="530" y="88" width="13" height="13" rx="2.5" fill="#161b22" style="animation-delay:3.601s"/><rect class="c e" x="530" y="104" width="13" height="13" rx="2.5" fill="#161b22" style="animation-delay:3.641s"/><rect class="c e" x="530" y="120" width="13" height="13" rx="2.5" fill="#161b22" style="animation-delay:3.681s"/><rect class="c e" x="546" y="24" width="13" height="13" rx="2.5" fill="#161b22" style="animation-delay:3.515s"/><rect class="c e" x="546" y="40" width="13" height="13" rx="2.5" fill="#161b22" style="animation-delay:3.554s"/><rect class="c e" x="546" y="56" width="13" height="13" rx="2.5" fill="#161b22" style="animation-delay:3.594s"/><rect class="c e" x="546" y="72" width="13" height="13" rx="2.5" fill="#161b22" style="animation-delay:3.634s"/><rect class="c e" x="546" y="88" width="13" height="13" rx="2.5" fill="#161b22" style="animation-delay:3.674s"/><rect class="c e" x="546" y="104" width="13" height="13" rx="2.5" fill="#161b22" style="animation-delay:3.714s"/><rect class="c e" x="546" y="120" width="13" height="13" rx="2.5" fill="#161b22" style="animation-delay:3.753s"/><rect class="c e" x="562" y="24" width="13" height="13" rx="2.5" fill="#161b22" style="animation-delay:3.587s"/><rect class="c e" x="562" y="40" width="13" height="13" rx="2.5" fill="#161b22" style="animation-delay:3.627s"/><rect class="c e" x="562" y="56" width="13" height="13" rx="2.5" fill="#161b22" style="animation-delay:3.667s"/><rect class="c e" x="562" y="72" width="13" height="13" rx="2.5" fill="#161b22" style="animation-delay:3.706s"/><rect class="c e" x="562" y="88" width="13" height="13" rx="2.5" fill="#161b22" style="animation-delay:3.746s"/><rect class="c e" x="562" y="104" width="13" height="13" rx="2.5" fill="#161b22" style="animation-delay:3.786s"/><rect class="c e" x="562" y="120" width="13" height="13" rx="2.5" fill="#161b22" style="animation-delay:3.826s"/><rect class="c e" x="578" y="24" width="13" height="13" rx="2.5" fill="#161b22" style="animation-delay:3.659s"/><rect class="c e" x="578" y="40" width="13" height="13" rx="2.5" fill="#161b22" style="animation-delay:3.699s"/><rect class="c e" x="578" y="56" width="13" height="13" rx="2.5" fill="#161b22" style="animation-delay:3.739s"/><rect class="c e" x="578" y="72" width="13" height="13" rx="2.5" fill="#161b22" style="animation-delay:3.779s"/><rect class="c e" x="578" y="88" width="13" height="13" rx="2.5" fill="#161b22" style="animation-delay:3.818s"/><rect class="c e" x="578" y="104" width="13" height="13" rx="2.5" fill="#161b22" style="animation-delay:3.858s"/><rect class="c e" x="578" y="120" width="13" height="13" rx="2.5" fill="#161b22" style="animation-delay:3.898s"/><rect class="c e" x="594" y="24" width="13" height="13" rx="2.5" fill="#161b22" style="animation-delay:3.732s"/><rect class="c e" x="594" y="40" width="13" height="13" rx="2.5" fill="#161b22" style="animation-delay:3.771s"/><rect class="c e" x="594" y="56" width="13" height="13" rx="2.5" fill="#161b22" style="animation-delay:3.811s"/><rect class="c e" x="594" y="72" width="13" height="13" rx="2.5" fill="#161b22" style="animation-delay:3.851s"/><rect class="c e" x="594" y="88" width="13" height="13" rx="2.5" fill="#161b22" style="animation-delay:3.891s"/><rect class="c e" x="594" y="104" width="13" height="13" rx="2.5" fill="#161b22" style="animation-delay:3.931s"/><rect class="c e" x="594" y="120" width="13" height="13" rx="2.5" fill="#161b22" style="animation-delay:3.97s"/><rect class="c e" x="610" y="24" width="13" height="13" rx="2.5" fill="#161b22" style="animation-delay:3.804s"/><rect class="c e" x="610" y="40" width="13" height="13" rx="2.5" fill="#161b22" style="animation-delay:3.844s"/><rect class="c e" x="610" y="56" width="13" height="13" rx="2.5" fill="#161b22" style="animation-delay:3.884s"/><rect class="c e" x="610" y="72" width="13" height="13" rx="2.5" fill="#161b22" style="animation-delay:3.923s"/><rect class="c e" x="610" y="88" width="13" height="13" rx="2.5" fill="#161b22" style="animation-delay:3.963s"/><rect class="c e" x="610" y="104" width="13" height="13" rx="2.5" fill="#161b22" style="animation-delay:4.003s"/><rect class="c e" x="610" y="120" width="13" height="13" rx="2.5" fill="#161b22" style="animation-delay:4.043s"/><rect class="c e" x="626" y="24" width="13" height="13" rx="2.5" fill="#161b22" style="animation-delay:3.876s"/><rect class="c e" x="626" y="40" width="13" height="13" rx="2.5" fill="#161b22" style="animation-delay:3.916s"/><rect class="c e" x="626" y="56" width="13" height="13" rx="2.5" fill="#161b22" style="animation-delay:3.956s"/><rect class="c e" x="626" y="72" width="13" height="13" rx="2.5" fill="#161b22" style="animation-delay:3.996s"/><rect class="c e" x="626" y="88" width="13" height="13" rx="2.5" fill="#161b22" style="animation-delay:4.035s"/><rect class="c e" x="626" y="104" width="13" height="13" rx="2.5" fill="#161b22" style="animation-delay:4.075s"/><rect class="c e" x="626" y="120" width="13" height="13" rx="2.5" fill="#161b22" style="animation-delay:4.115s"/><rect class="c e" x="642" y="24" width="13" height="13" rx="2.5" fill="#161b22" style="animation-delay:3.949s"/><rect class="c e" x="642" y="40" width="13" height="13" rx="2.5" fill="#161b22" style="animation-delay:3.988s"/><rect class="c e" x="642" y="56" width="13" height="13" rx="2.5" fill="#161b22" style="animation-delay:4.028s"/><rect class="c e" x="642" y="72" width="13" height="13" rx="2.5" fill="#161b22" style="animation-delay:4.068s"/><rect class="c e" x="642" y="88" width="13" height="13" rx="2.5" fill="#161b22" style="animation-delay:4.108s"/><rect class="c e" x="642" y="104" width="13" height="13" rx="2.5" fill="#161b22" style="animation-delay:4.148s"/><rect class="c e" x="642" y="120" width="13" height="13" rx="2.5" fill="#161b22" style="animation-delay:4.187s"/><rect class="c e" x="658" y="24" width="13" height="13" rx="2.5" fill="#161b22" style="animation-delay:4.021s"/><rect class="c e" x="658" y="40" width="13" height="13" rx="2.5" fill="#161b22" style="animation-delay:4.061s"/><rect class="c g" x="658" y="56" width="13" height="13" rx="2.5" fill="#0e4429" style="animation-delay:4.101s"/><rect class="c e" x="658" y="72" width="13" height="13" rx="2.5" fill="#161b22" style="animation-delay:4.14s"/><rect class="c e" x="658" y="88" width="13" height="13" rx="2.5" fill="#161b22" style="animation-delay:4.18s"/><rect class="c e" x="658" y="104" width="13" height="13" rx="2.5" fill="#161b22" style="animation-delay:4.22s"/><rect class="c e" x="658" y="120" width="13" height="13" rx="2.5" fill="#161b22" style="animation-delay:4.26s"/><rect class="c e" x="674" y="24" width="13" height="13" rx="2.5" fill="#161b22" style="animation-delay:4.093s"/><rect class="c e" x="674" y="40" width="13" height="13" rx="2.5" fill="#161b22" style="animation-delay:4.133s"/><rect class="c e" x="674" y="56" width="13" height="13" rx="2.5" fill="#161b22" style="animation-delay:4.173s"/><rect class="c e" x="674" y="72" width="13" height="13" rx="2.5" fill="#161b22" style="animation-delay:4.213s"/><rect class="c e" x="674" y="88" width="13" height="13" rx="2.5" fill="#161b22" style="animation-delay:4.252s"/><rect class="c e" x="674" y="104" width="13" height="13" rx="2.5" fill="#161b22" style="animation-delay:4.292s"/><rect class="c e" x="674" y="120" width="13" height="13" rx="2.5" fill="#161b22" style="animation-delay:4.332s"/><rect class="c e" x="690" y="24" width="13" height="13" rx="2.5" fill="#161b22" style="animation-delay:4.166s"/><rect class="c e" x="690" y="40" width="13" height="13" rx="2.5" fill="#161b22" style="animation-delay:4.205s"/><rect class="c e" x="690" y="56" width="13" height="13" rx="2.5" fill="#161b22" style="animation-delay:4.245s"/><rect class="c e" x="690" y="72" width="13" height="13" rx="2.5" fill="#161b22" style="animation-delay:4.285s"/><rect class="c e" x="690" y="88" width="13" height="13" rx="2.5" fill="#161b22" style="animation-delay:4.325s"/><rect class="c e" x="690" y="104" width="13" height="13" rx="2.5" fill="#161b22" style="animation-delay:4.365s"/><rect class="c e" x="690" y="120" width="13" height="13" rx="2.5" fill="#161b22" style="animation-delay:4.404s"/><rect class="c e" x="706" y="24" width="13" height="13" rx="2.5" fill="#161b22" style="animation-delay:4.238s"/><rect class="c e" x="706" y="40" width="13" height="13" rx="2.5" fill="#161b22" style="animation-delay:4.278s"/><rect class="c e" x="706" y="56" width="13" height="13" rx="2.5" fill="#161b22" style="animation-delay:4.318s"/><rect class="c e" x="706" y="72" width="13" height="13" rx="2.5" fill="#161b22" style="animation-delay:4.357s"/><rect class="c e" x="706" y="88" width="13" height="13" rx="2.5" fill="#161b22" style="animation-delay:4.397s"/><rect class="c e" x="706" y="104" width="13" height="13" rx="2.5" fill="#161b22" style="animation-delay:4.437s"/><rect class="c e" x="706" y="120" width="13" height="13" rx="2.5" fill="#161b22" style="animation-delay:4.477s"/><rect class="c e" x="722" y="24" width="13" height="13" rx="2.5" fill="#161b22" style="animation-delay:4.31s"/><rect class="c e" x="722" y="40" width="13" height="13" rx="2.5" fill="#161b22" style="animation-delay:4.35s"/><rect class="c e" x="722" y="56" width="13" height="13" rx="2.5" fill="#161b22" style="animation-delay:4.39s"/><rect class="c e" x="722" y="72" width="13" height="13" rx="2.5" fill="#161b22" style="animation-delay:4.43s"/><rect class="c e" x="722" y="88" width="13" height="13" rx="2.5" fill="#161b22" style="animation-delay:4.469s"/><rect class="c e" x="722" y="104" width="13" height="13" rx="2.5" fill="#161b22" style="animation-delay:4.509s"/><rect class="c e" x="722" y="120" width="13" height="13" rx="2.5" fill="#161b22" style="animation-delay:4.549s"/><rect class="c e" x="738" y="24" width="13" height="13" rx="2.5" fill="#161b22" style="animation-delay:4.383s"/><rect class="c e" x="738" y="40" width="13" height="13" rx="2.5" fill="#161b22" style="animation-delay:4.422s"/><rect class="c e" x="738" y="56" width="13" height="13" rx="2.5" fill="#161b22" style="animation-delay:4.462s"/><rect class="c e" x="738" y="72" width="13" height="13" rx="2.5" fill="#161b22" style="animation-delay:4.502s"/><rect class="c e" x="738" y="88" width="13" height="13" rx="2.5" fill="#161b22" style="animation-delay:4.542s"/><rect class="c e" x="738" y="104" width="13" height="13" rx="2.5" fill="#161b22" style="animation-delay:4.582s"/><rect class="c e" x="738" y="120" width="13" height="13" rx="2.5" fill="#161b22" style="animation-delay:4.621s"/><rect class="c e" x="754" y="24" width="13" height="13" rx="2.5" fill="#161b22" style="animation-delay:4.455s"/><rect class="c e" x="754" y="40" width="13" height="13" rx="2.5" fill="#161b22" style="animation-delay:4.495s"/><rect class="c e" x="754" y="56" width="13" height="13" rx="2.5" fill="#161b22" style="animation-delay:4.535s"/><rect class="c e" x="754" y="72" width="13" height="13" rx="2.5" fill="#161b22" style="animation-delay:4.574s"/><rect class="c e" x="754" y="88" width="13" height="13" rx="2.5" fill="#161b22" style="animation-delay:4.614s"/><rect class="c e" x="754" y="104" width="13" height="13" rx="2.5" fill="#161b22" style="animation-delay:4.654s"/><rect class="c e" x="754" y="120" width="13" height="13" rx="2.5" fill="#161b22" style="animation-delay:4.694s"/><rect class="c e" x="770" y="24" width="13" height="13" rx="2.5" fill="#161b22" style="animation-delay:4.527s"/><rect class="c e" x="770" y="40" width="13" height="13" rx="2.5" fill="#161b22" style="animation-delay:4.567s"/><rect class="c e" x="770" y="56" width="13" height="13" rx="2.5" fill="#161b22" style="animation-delay:4.607s"/><rect class="c e" x="770" y="72" width="13" height="13" rx="2.5" fill="#161b22" style="animation-delay:4.647s"/><rect class="c e" x="770" y="88" width="13" height="13" rx="2.5" fill="#161b22" style="animation-delay:4.686s"/><rect class="c e" x="770" y="104" width="13" height="13" rx="2.5" fill="#161b22" style="animation-delay:4.726s"/><rect class="c e" x="770" y="120" width="13" height="13" rx="2.5" fill="#161b22" style="animation-delay:4.766s"/><rect class="c e" x="786" y="24" width="13" height="13" rx="2.5" fill="#161b22" style="animation-delay:4.6s"/><rect class="c e" x="786" y="40" width="13" height="13" rx="2.5" fill="#161b22" style="animation-delay:4.639s"/><rect class="c e" x="786" y="56" width="13" height="13" rx="2.5" fill="#161b22" style="animation-delay:4.679s"/><rect class="c e" x="786" y="72" width="13" height="13" rx="2.5" fill="#161b22" style="animation-delay:4.719s"/><rect class="c e" x="786" y="88" width="13" height="13" rx="2.5" fill="#161b22" style="animation-delay:4.759s"/><rect class="c e" x="786" y="104" width="13" height="13" rx="2.5" fill="#161b22" style="animation-delay:4.799s"/><rect class="c e" x="786" y="120" width="13" height="13" rx="2.5" fill="#161b22" style="animation-delay:4.838s"/><rect class="c e" x="802" y="24" width="13" height="13" rx="2.5" fill="#161b22" style="animation-delay:4.672s"/><rect class="c e" x="802" y="40" width="13" height="13" rx="2.5" fill="#161b22" style="animation-delay:4.712s"/><rect class="c e" x="802" y="56" width="13" height="13" rx="2.5" fill="#161b22" style="animation-delay:4.752s"/><rect class="c e" x="802" y="72" width="13" height="13" rx="2.5" fill="#161b22" style="animation-delay:4.791s"/><rect class="c e" x="802" y="88" width="13" height="13" rx="2.5" fill="#161b22" style="animation-delay:4.831s"/><rect class="c e" x="802" y="104" width="13" height="13" rx="2.5" fill="#161b22" style="animation-delay:4.871s"/><rect class="c e" x="802" y="120" width="13" height="13" rx="2.5" fill="#161b22" style="animation-delay:4.911s"/><rect class="c e" x="818" y="24" width="13" height="13" rx="2.5" fill="#161b22" style="animation-delay:4.744s"/><rect class="c g" x="818" y="40" width="13" height="13" rx="2.5" fill="#0e4429" style="animation-delay:4.784s"/><rect class="c e" x="818" y="56" width="13" height="13" rx="2.5" fill="#161b22" style="animation-delay:4.824s"/><rect class="c e" x="818" y="72" width="13" height="13" rx="2.5" fill="#161b22" style="animation-delay:4.864s"/><rect class="c e" x="818" y="88" width="13" height="13" rx="2.5" fill="#161b22" style="animation-delay:4.903s"/><rect class="c e" x="818" y="104" width="13" height="13" rx="2.5" fill="#161b22" style="animation-delay:4.943s"/><rect class="c e" x="818" y="120" width="13" height="13" rx="2.5" fill="#161b22" style="animation-delay:4.983s"/><rect class="c e" x="834" y="24" width="13" height="13" rx="2.5" fill="#161b22" style="animation-delay:4.817s"/><rect class="c g" x="834" y="40" width="13" height="13" rx="2.5" fill="#0e4429" style="animation-delay:4.856s"/><rect class="c e" x="834" y="56" width="13" height="13" rx="2.5" fill="#161b22" style="animation-delay:4.896s"/><rect class="c e" x="834" y="72" width="13" height="13" rx="2.5" fill="#161b22" style="animation-delay:4.936s"/><rect class="c e" x="834" y="88" width="13" height="13" rx="2.5" fill="#161b22" style="animation-delay:4.976s"/><rect class="c e" x="834" y="104" width="13" height="13" rx="2.5" fill="#161b22" style="animation-delay:5.016s"/><rect class="c e" x="834" y="120" width="13" height="13" rx="2.5" fill="#161b22" style="animation-delay:5.055s"/><rect class="c e" x="850" y="24" width="13" height="13" rx="2.5" fill="#161b22" style="animation-delay:4.889s"/><rect class="c g" x="850" y="40" width="13" height="13" rx="2.5" fill="#0e4429" style="animation-delay:4.929s"/><rect class="c e" x="850" y="56" width="13" height="13" rx="2.5" fill="#161b22" style="animation-delay:4.969s"/><rect class="c e" x="850" y="72" width="13" height="13" rx="2.5" fill="#161b22" style="animation-delay:5.008s"/><rect class="c e" x="850" y="88" width="13" height="13" rx="2.5" fill="#161b22" style="animation-delay:5.048s"/><rect class="c e" x="850" y="104" width="13" height="13" rx="2.5" fill="#161b22" style="animation-delay:5.088s"/><rect class="c e" x="850" y="120" width="13" height="13" rx="2.5" fill="#161b22" style="animation-delay:5.128s"/><rect class="c g" x="866" y="24" width="13" height="13" rx="2.5" fill="#006d32" style="animation-delay:4.961s"/>
<text class="total" x="34" y="152">500 contributions in the last year</text>
</svg>